<mxfile host="app.diagrams.net" agent="Mozilla/5.0 (Windows NT 10.0; Win64; x64) AppleWebKit/537.36 (KHTML, like Gecko) Chrome/133.0.0.0 Safari/537.36 Edg/133.0.0.0" version="26.0.16">
  <diagram name="Page-1" id="e56a1550-8fbb-45ad-956c-1786394a9013">
    <mxGraphModel dx="1092" dy="640" grid="1" gridSize="10" guides="1" tooltips="1" connect="1" arrows="1" fold="1" page="1" pageScale="1" pageWidth="4000" pageHeight="3000" background="none" math="1" shadow="0">
      <root>
        <mxCell id="0" />
        <mxCell id="1" parent="0" />
        <mxCell id="VsVcQcCOclfDHJGfPfXY-29" style="edgeStyle=orthogonalEdgeStyle;rounded=1;orthogonalLoop=1;jettySize=auto;html=1;exitX=1;exitY=0.3333333333333333;exitDx=0;exitDy=0;exitPerimeter=0;entryX=0.5;entryY=0;entryDx=0;entryDy=0;curved=0;" edge="1" parent="1" source="VsVcQcCOclfDHJGfPfXY-17" target="VsVcQcCOclfDHJGfPfXY-18">
          <mxGeometry relative="1" as="geometry" />
        </mxCell>
        <mxCell id="VsVcQcCOclfDHJGfPfXY-17" value="User" style="shape=umlActor;verticalLabelPosition=bottom;verticalAlign=top;html=1;outlineConnect=0;" vertex="1" parent="1">
          <mxGeometry x="409.5" y="1420" width="30" height="60" as="geometry" />
        </mxCell>
        <mxCell id="VsVcQcCOclfDHJGfPfXY-20" value="" style="group" vertex="1" connectable="0" parent="1">
          <mxGeometry x="437" y="1460" width="55" height="50" as="geometry" />
        </mxCell>
        <mxCell id="VsVcQcCOclfDHJGfPfXY-18" value="" style="shape=image;html=1;verticalAlign=top;verticalLabelPosition=bottom;labelBackgroundColor=#ffffff;imageAspect=0;aspect=fixed;image=https://cdn4.iconfinder.com/data/icons/48-bubbles/48/07.Wallet-128.png" vertex="1" parent="VsVcQcCOclfDHJGfPfXY-20">
          <mxGeometry x="5" width="49.01960784313725" height="49.01960784313725" as="geometry" />
        </mxCell>
        <mxCell id="VsVcQcCOclfDHJGfPfXY-19" value="wallet" style="text;html=1;align=center;verticalAlign=middle;resizable=0;points=[];autosize=1;strokeColor=none;fillColor=none;" vertex="1" parent="VsVcQcCOclfDHJGfPfXY-20">
          <mxGeometry y="20.588235294117645" width="50" height="30" as="geometry" />
        </mxCell>
        <mxCell id="VsVcQcCOclfDHJGfPfXY-30" style="edgeStyle=orthogonalEdgeStyle;rounded=0;orthogonalLoop=1;jettySize=auto;html=1;entryX=0.476;entryY=0.009;entryDx=0;entryDy=0;curved=0;entryPerimeter=0;" edge="1" parent="1" target="VsVcQcCOclfDHJGfPfXY-93">
          <mxGeometry relative="1" as="geometry">
            <mxPoint x="464.5" y="1510" as="sourcePoint" />
            <mxPoint x="464.5" y="1560" as="targetPoint" />
          </mxGeometry>
        </mxCell>
        <mxCell id="VsVcQcCOclfDHJGfPfXY-31" value="SOL" style="edgeLabel;html=1;align=center;verticalAlign=middle;resizable=0;points=[];" vertex="1" connectable="0" parent="VsVcQcCOclfDHJGfPfXY-30">
          <mxGeometry x="-0.2739" y="-1" relative="1" as="geometry">
            <mxPoint x="1" y="2" as="offset" />
          </mxGeometry>
        </mxCell>
        <mxCell id="VsVcQcCOclfDHJGfPfXY-146" style="edgeStyle=orthogonalEdgeStyle;rounded=0;orthogonalLoop=1;jettySize=auto;html=1;entryX=0.5;entryY=0;entryDx=0;entryDy=0;strokeColor=default;startArrow=diamond;startFill=0;endArrow=none;" edge="1" parent="1" source="VsVcQcCOclfDHJGfPfXY-66" target="VsVcQcCOclfDHJGfPfXY-127">
          <mxGeometry relative="1" as="geometry">
            <Array as="points">
              <mxPoint x="730" y="895" />
            </Array>
          </mxGeometry>
        </mxCell>
        <mxCell id="VsVcQcCOclfDHJGfPfXY-66" value="Registry" style="swimlane;fontStyle=1;align=center;verticalAlign=top;childLayout=stackLayout;horizontal=1;startSize=26;horizontalStack=0;resizeParent=1;resizeParentMax=0;resizeLast=0;collapsible=1;marginBottom=0;whiteSpace=wrap;html=1;fillStyle=auto;gradientColor=none;" vertex="1" parent="1">
          <mxGeometry x="870" y="925" width="650" height="346" as="geometry" />
        </mxCell>
        <mxCell id="VsVcQcCOclfDHJGfPfXY-69" value="+ lastNonce: u256" style="text;strokeColor=none;fillColor=none;align=left;verticalAlign=top;spacingLeft=4;spacingRight=4;overflow=hidden;rotatable=0;points=[[0,0.5],[1,0.5]];portConstraint=eastwest;whiteSpace=wrap;html=1;" vertex="1" parent="VsVcQcCOclfDHJGfPfXY-66">
          <mxGeometry y="26" width="650" height="26" as="geometry" />
        </mxCell>
        <mxCell id="VsVcQcCOclfDHJGfPfXY-150" value="&lt;div&gt;- mainsc: Pubkey&lt;/div&gt;" style="text;strokeColor=none;fillColor=none;align=left;verticalAlign=top;spacingLeft=4;spacingRight=4;overflow=hidden;rotatable=0;points=[[0,0.5],[1,0.5]];portConstraint=eastwest;whiteSpace=wrap;html=1;" vertex="1" parent="VsVcQcCOclfDHJGfPfXY-66">
          <mxGeometry y="52" width="650" height="26" as="geometry" />
        </mxCell>
        <mxCell id="VsVcQcCOclfDHJGfPfXY-70" value="- identites: Pubkey[Pubkey]&amp;nbsp; &amp;nbsp;(key: identity, value: beneificiary Pubkey)" style="text;strokeColor=none;fillColor=none;align=left;verticalAlign=top;spacingLeft=4;spacingRight=4;overflow=hidden;rotatable=0;points=[[0,0.5],[1,0.5]];portConstraint=eastwest;whiteSpace=wrap;html=1;" vertex="1" parent="VsVcQcCOclfDHJGfPfXY-66">
          <mxGeometry y="78" width="650" height="26" as="geometry" />
        </mxCell>
        <mxCell id="VsVcQcCOclfDHJGfPfXY-71" value="" style="line;strokeWidth=1;fillColor=none;align=left;verticalAlign=middle;spacingTop=-1;spacingLeft=3;spacingRight=3;rotatable=0;labelPosition=right;points=[];portConstraint=eastwest;strokeColor=inherit;" vertex="1" parent="VsVcQcCOclfDHJGfPfXY-66">
          <mxGeometry y="104" width="650" height="8" as="geometry" />
        </mxCell>
        <mxCell id="VsVcQcCOclfDHJGfPfXY-151" value="- _openChannel(_identity, _mainSC, beneficiary Pubkey, _fee u256): Pubkey" style="text;strokeColor=none;fillColor=none;align=left;verticalAlign=middle;spacingLeft=4;spacingRight=4;overflow=hidden;rotatable=0;points=[[0,0.5],[1,0.5]];portConstraint=eastwest;whiteSpace=wrap;html=1;" vertex="1" parent="VsVcQcCOclfDHJGfPfXY-66">
          <mxGeometry y="112" width="650" height="26" as="geometry" />
        </mxCell>
        <mxCell id="VsVcQcCOclfDHJGfPfXY-135" value="+ initialize(_ mainSC, _token Pubkey, ...)" style="text;strokeColor=none;fillColor=none;align=left;verticalAlign=middle;spacingLeft=4;spacingRight=4;overflow=hidden;rotatable=0;points=[[0,0.5],[1,0.5]];portConstraint=eastwest;whiteSpace=wrap;html=1;" vertex="1" parent="VsVcQcCOclfDHJGfPfXY-66">
          <mxGeometry y="138" width="650" height="26" as="geometry" />
        </mxCell>
        <mxCell id="VsVcQcCOclfDHJGfPfXY-166" value="+ registerMain(_hermesOperator Pubkey, hermesStake, _hermesFee, _minChannelStake, _maxChannelStake uint256)" style="text;strokeColor=none;fillColor=none;align=left;verticalAlign=middle;spacingLeft=4;spacingRight=4;overflow=hidden;rotatable=0;points=[[0,0.5],[1,0.5]];portConstraint=eastwest;whiteSpace=wrap;html=1;fontSize=12;" vertex="1" parent="VsVcQcCOclfDHJGfPfXY-66">
          <mxGeometry y="164" width="650" height="26" as="geometry" />
        </mxCell>
        <mxCell id="VsVcQcCOclfDHJGfPfXY-152" value="+ RegisterIdentity(_mainSC, _beneficiary Pubkey, _stake, _transactorFee u256, _signature byte[])" style="text;strokeColor=none;fillColor=none;align=left;verticalAlign=middle;spacingLeft=4;spacingRight=4;overflow=hidden;rotatable=0;points=[[0,0.5],[1,0.5]];portConstraint=eastwest;whiteSpace=wrap;html=1;" vertex="1" parent="VsVcQcCOclfDHJGfPfXY-66">
          <mxGeometry y="190" width="650" height="26" as="geometry" />
        </mxCell>
        <mxCell id="VsVcQcCOclfDHJGfPfXY-72" value="+ RegisterIdentity(_mainSC, _beneficiary Pubkey, _stake, _transactorFee u256, _signature byte[])" style="text;strokeColor=none;fillColor=none;align=left;verticalAlign=middle;spacingLeft=4;spacingRight=4;overflow=hidden;rotatable=0;points=[[0,0.5],[1,0.5]];portConstraint=eastwest;whiteSpace=wrap;html=1;" vertex="1" parent="VsVcQcCOclfDHJGfPfXY-66">
          <mxGeometry y="216" width="650" height="26" as="geometry" />
        </mxCell>
        <mxCell id="VsVcQcCOclfDHJGfPfXY-149" value="+ OpenConsumerChannel(_mainSC Pubkey, _transactorFee u256, _signature byte[])" style="text;strokeColor=none;fillColor=none;align=left;verticalAlign=middle;spacingLeft=4;spacingRight=4;overflow=hidden;rotatable=0;points=[[0,0.5],[1,0.5]];portConstraint=eastwest;whiteSpace=wrap;html=1;" vertex="1" parent="VsVcQcCOclfDHJGfPfXY-66">
          <mxGeometry y="242" width="650" height="26" as="geometry" />
        </mxCell>
        <mxCell id="VsVcQcCOclfDHJGfPfXY-73" value="+ OpenConsumerChannel(_identity, _mainSC Pubkey)" style="text;strokeColor=none;fillColor=none;align=left;verticalAlign=middle;spacingLeft=4;spacingRight=4;overflow=hidden;rotatable=0;points=[[0,0.5],[1,0.5]];portConstraint=eastwest;whiteSpace=wrap;html=1;" vertex="1" parent="VsVcQcCOclfDHJGfPfXY-66">
          <mxGeometry y="268" width="650" height="26" as="geometry" />
        </mxCell>
        <mxCell id="VsVcQcCOclfDHJGfPfXY-148" value="+ IsChannelOpen(_identity, _mainSC Pubkey): bool" style="text;strokeColor=none;fillColor=none;align=left;verticalAlign=middle;spacingLeft=4;spacingRight=4;overflow=hidden;rotatable=0;points=[[0,0.5],[1,0.5]];portConstraint=eastwest;whiteSpace=wrap;html=1;" vertex="1" parent="VsVcQcCOclfDHJGfPfXY-66">
          <mxGeometry y="294" width="650" height="26" as="geometry" />
        </mxCell>
        <mxCell id="VsVcQcCOclfDHJGfPfXY-74" value="+ Transfer(_to Pubkey, _amount u256)" style="text;strokeColor=none;fillColor=none;align=left;verticalAlign=middle;spacingLeft=4;spacingRight=4;overflow=hidden;rotatable=0;points=[[0,0.5],[1,0.5]];portConstraint=eastwest;whiteSpace=wrap;html=1;" vertex="1" parent="VsVcQcCOclfDHJGfPfXY-66">
          <mxGeometry y="320" width="650" height="26" as="geometry" />
        </mxCell>
        <mxCell id="VsVcQcCOclfDHJGfPfXY-76" value="&lt;span style=&quot;font-size: 14px; font-weight: 400;&quot;&gt;Main Smart Contract&lt;/span&gt;" style="swimlane;fontStyle=1;align=center;verticalAlign=top;childLayout=stackLayout;horizontal=1;startSize=26;horizontalStack=0;resizeParent=1;resizeParentMax=0;resizeLast=0;collapsible=1;marginBottom=0;whiteSpace=wrap;html=1;" vertex="1" parent="1">
          <mxGeometry x="1610" y="983" width="330" height="214" as="geometry" />
        </mxCell>
        <mxCell id="VsVcQcCOclfDHJGfPfXY-85" value="&lt;span style=&quot;color: rgb(0, 0, 0); font-family: Helvetica; font-size: 12px; font-style: normal; font-variant-ligatures: normal; font-variant-caps: normal; font-weight: 400; letter-spacing: normal; orphans: 2; text-align: left; text-indent: 0px; text-transform: none; widows: 2; word-spacing: 0px; -webkit-text-stroke-width: 0px; white-space: normal; background-color: rgb(251, 251, 251); text-decoration-thickness: initial; text-decoration-style: initial; text-decoration-color: initial; display: inline !important; float: none;&quot;&gt;- minStake: u64&lt;/span&gt;" style="text;whiteSpace=wrap;html=1;verticalAlign=middle;" vertex="1" parent="VsVcQcCOclfDHJGfPfXY-76">
          <mxGeometry y="26" width="330" height="20" as="geometry" />
        </mxCell>
        <mxCell id="VsVcQcCOclfDHJGfPfXY-88" value="&lt;span style=&quot;color: rgb(0, 0, 0); font-family: Helvetica; font-size: 12px; font-style: normal; font-variant-ligatures: normal; font-variant-caps: normal; font-weight: 400; letter-spacing: normal; orphans: 2; text-align: left; text-indent: 0px; text-transform: none; widows: 2; word-spacing: 0px; -webkit-text-stroke-width: 0px; white-space: normal; background-color: rgb(251, 251, 251); text-decoration-thickness: initial; text-decoration-style: initial; text-decoration-color: initial; float: none; display: inline !important;&quot;&gt;- channels: Channel[_channelId]&lt;/span&gt;" style="text;whiteSpace=wrap;html=1;verticalAlign=middle;" vertex="1" parent="VsVcQcCOclfDHJGfPfXY-76">
          <mxGeometry y="46" width="330" height="20" as="geometry" />
        </mxCell>
        <mxCell id="VsVcQcCOclfDHJGfPfXY-87" value="&lt;span style=&quot;color: rgb(0, 0, 0); font-family: Helvetica; font-size: 12px; font-style: normal; font-variant-ligatures: normal; font-variant-caps: normal; font-weight: 400; letter-spacing: normal; orphans: 2; text-align: left; text-indent: 0px; text-transform: none; widows: 2; word-spacing: 0px; -webkit-text-stroke-width: 0px; white-space: normal; background-color: rgb(251, 251, 251); text-decoration-thickness: initial; text-decoration-style: initial; text-decoration-color: initial; display: inline !important; float: none;&quot;&gt;- totalStake&lt;/span&gt;&lt;span style=&quot;forced-color-adjust: none; color: light-dark(rgb(0, 0, 0), rgb(255, 255, 255)); font-family: Helvetica; font-size: 12px; font-style: normal; font-variant-ligatures: normal; font-variant-caps: normal; font-weight: 400; letter-spacing: normal; orphans: 2; text-align: left; text-indent: 0px; text-transform: none; widows: 2; word-spacing: 0px; -webkit-text-stroke-width: 0px; white-space: normal; background-color: transparent; text-decoration-thickness: initial; text-decoration-style: initial; text-decoration-color: initial;&quot;&gt;: u256&lt;/span&gt;" style="text;whiteSpace=wrap;html=1;verticalAlign=middle;" vertex="1" parent="VsVcQcCOclfDHJGfPfXY-76">
          <mxGeometry y="66" width="330" height="20" as="geometry" />
        </mxCell>
        <mxCell id="VsVcQcCOclfDHJGfPfXY-86" value="&lt;span style=&quot;color: rgb(0, 0, 0); font-family: Helvetica; font-size: 12px; font-style: normal; font-variant-ligatures: normal; font-variant-caps: normal; font-weight: 400; letter-spacing: normal; orphans: 2; text-align: left; text-indent: 0px; text-transform: none; widows: 2; word-spacing: 0px; -webkit-text-stroke-width: 0px; white-space: normal; background-color: rgb(251, 251, 251); text-decoration-thickness: initial; text-decoration-style: initial; text-decoration-color: initial; display: inline !important; float: none;&quot;&gt;- maxStake: u64&lt;/span&gt;" style="text;html=1;verticalAlign=middle;whiteSpace=wrap;" vertex="1" parent="VsVcQcCOclfDHJGfPfXY-76">
          <mxGeometry y="86" width="330" height="20" as="geometry" />
        </mxCell>
        <mxCell id="VsVcQcCOclfDHJGfPfXY-81" value="" style="line;strokeWidth=1;fillColor=none;align=left;verticalAlign=middle;spacingTop=-1;spacingLeft=3;spacingRight=3;rotatable=0;labelPosition=right;points=[];portConstraint=eastwest;strokeColor=inherit;" vertex="1" parent="VsVcQcCOclfDHJGfPfXY-76">
          <mxGeometry y="106" width="330" height="8" as="geometry" />
        </mxCell>
        <mxCell id="VsVcQcCOclfDHJGfPfXY-104" value="+ initialize(_operator Pubkey, _token Pubkey, _fee u256, ...)" style="text;whiteSpace=wrap;html=1;verticalAlign=middle;" vertex="1" parent="VsVcQcCOclfDHJGfPfXY-76">
          <mxGeometry y="114" width="330" height="20" as="geometry" />
        </mxCell>
        <mxCell id="VsVcQcCOclfDHJGfPfXY-92" value="+ RegisterIdentity(_identity Pubkey)" style="text;whiteSpace=wrap;html=1;verticalAlign=middle;" vertex="1" parent="VsVcQcCOclfDHJGfPfXY-76">
          <mxGeometry y="134" width="330" height="20" as="geometry" />
        </mxCell>
        <mxCell id="VsVcQcCOclfDHJGfPfXY-89" value="&lt;span style=&quot;color: rgb(0, 0, 0); font-family: Helvetica; font-size: 12px; font-style: normal; font-variant-ligatures: normal; font-variant-caps: normal; font-weight: 400; letter-spacing: normal; orphans: 2; text-align: left; text-indent: 0px; text-transform: none; widows: 2; word-spacing: 0px; -webkit-text-stroke-width: 0px; white-space: normal; background-color: rgb(251, 251, 251); text-decoration-thickness: initial; text-decoration-style: initial; text-decoration-color: initial; float: none; display: inline !important;&quot;&gt;+ GetChannelID(_identity Pubkey&lt;/span&gt;)&amp;nbsp;" style="text;whiteSpace=wrap;html=1;verticalAlign=middle;" vertex="1" parent="VsVcQcCOclfDHJGfPfXY-76">
          <mxGeometry y="154" width="330" height="20" as="geometry" />
        </mxCell>
        <mxCell id="VsVcQcCOclfDHJGfPfXY-90" value="&lt;span style=&quot;color: rgb(0, 0, 0); font-family: Helvetica; font-size: 12px; font-style: normal; font-variant-ligatures: normal; font-variant-caps: normal; font-weight: 400; letter-spacing: normal; orphans: 2; text-align: left; text-indent: 0px; text-transform: none; widows: 2; word-spacing: 0px; -webkit-text-stroke-width: 0px; white-space: normal; background-color: rgb(251, 251, 251); text-decoration-thickness: initial; text-decoration-style: initial; text-decoration-color: initial; float: none; display: inline !important;&quot;&gt;+ OpenChannel(_identity Pubkey, _stakeAmount&amp;nbsp;&lt;/span&gt;u256)&amp;nbsp;" style="text;whiteSpace=wrap;html=1;verticalAlign=middle;" vertex="1" parent="VsVcQcCOclfDHJGfPfXY-76">
          <mxGeometry y="174" width="330" height="20" as="geometry" />
        </mxCell>
        <mxCell id="VsVcQcCOclfDHJGfPfXY-91" value="&lt;span style=&quot;color: rgb(0, 0, 0); font-family: Helvetica; font-size: 12px; font-style: normal; font-variant-ligatures: normal; font-variant-caps: normal; font-weight: 400; letter-spacing: normal; orphans: 2; text-align: left; text-indent: 0px; text-transform: none; widows: 2; word-spacing: 0px; -webkit-text-stroke-width: 0px; white-space: normal; background-color: rgb(251, 251, 251); text-decoration-thickness: initial; text-decoration-style: initial; text-decoration-color: initial; float: none; display: inline !important;&quot;&gt;+ IsChannelOpen(_channelId bytes32&lt;/span&gt;)&amp;nbsp;" style="text;whiteSpace=wrap;html=1;verticalAlign=middle;" vertex="1" parent="VsVcQcCOclfDHJGfPfXY-76">
          <mxGeometry y="194" width="330" height="20" as="geometry" />
        </mxCell>
        <mxCell id="VsVcQcCOclfDHJGfPfXY-93" value="Swap" style="swimlane;fontStyle=1;align=center;verticalAlign=top;childLayout=stackLayout;horizontal=1;startSize=26;horizontalStack=0;resizeParent=1;resizeParentMax=0;resizeLast=0;collapsible=1;marginBottom=0;whiteSpace=wrap;html=1;" vertex="1" parent="1">
          <mxGeometry x="360" y="1570" width="220" height="138" as="geometry" />
        </mxCell>
        <mxCell id="VsVcQcCOclfDHJGfPfXY-102" value="- uniswap: Pubkey" style="text;strokeColor=none;fillColor=none;align=left;verticalAlign=top;spacingLeft=4;spacingRight=4;overflow=hidden;rotatable=0;points=[[0,0.5],[1,0.5]];portConstraint=eastwest;whiteSpace=wrap;html=1;" vertex="1" parent="VsVcQcCOclfDHJGfPfXY-93">
          <mxGeometry y="26" width="220" height="26" as="geometry" />
        </mxCell>
        <mxCell id="VsVcQcCOclfDHJGfPfXY-97" value="+ timeLock: u256" style="text;strokeColor=none;fillColor=none;align=left;verticalAlign=top;spacingLeft=4;spacingRight=4;overflow=hidden;rotatable=0;points=[[0,0.5],[1,0.5]];portConstraint=eastwest;whiteSpace=wrap;html=1;" vertex="1" parent="VsVcQcCOclfDHJGfPfXY-93">
          <mxGeometry y="52" width="220" height="26" as="geometry" />
        </mxCell>
        <mxCell id="VsVcQcCOclfDHJGfPfXY-98" value="" style="line;strokeWidth=1;fillColor=none;align=left;verticalAlign=middle;spacingTop=-1;spacingLeft=3;spacingRight=3;rotatable=0;labelPosition=right;points=[];portConstraint=eastwest;strokeColor=inherit;" vertex="1" parent="VsVcQcCOclfDHJGfPfXY-93">
          <mxGeometry y="78" width="220" height="8" as="geometry" />
        </mxCell>
        <mxCell id="VsVcQcCOclfDHJGfPfXY-99" value="+ Swap(_amount u256)" style="text;strokeColor=none;fillColor=none;align=left;verticalAlign=middle;spacingLeft=4;spacingRight=4;overflow=hidden;rotatable=0;points=[[0,0.5],[1,0.5]];portConstraint=eastwest;whiteSpace=wrap;html=1;" vertex="1" parent="VsVcQcCOclfDHJGfPfXY-93">
          <mxGeometry y="86" width="220" height="26" as="geometry" />
        </mxCell>
        <mxCell id="VsVcQcCOclfDHJGfPfXY-101" value="+ Transfer(_to Pubkey, _amount u256)" style="text;strokeColor=none;fillColor=none;align=left;verticalAlign=middle;spacingLeft=4;spacingRight=4;overflow=hidden;rotatable=0;points=[[0,0.5],[1,0.5]];portConstraint=eastwest;whiteSpace=wrap;html=1;" vertex="1" parent="VsVcQcCOclfDHJGfPfXY-93">
          <mxGeometry y="112" width="220" height="26" as="geometry" />
        </mxCell>
        <mxCell id="VsVcQcCOclfDHJGfPfXY-103" value="" style="group" vertex="1" connectable="0" parent="1">
          <mxGeometry x="2000" y="970" width="610" height="164" as="geometry" />
        </mxCell>
        <mxCell id="VsVcQcCOclfDHJGfPfXY-36" value="Channel" style="swimlane;fontStyle=1;align=center;verticalAlign=top;childLayout=stackLayout;horizontal=1;startSize=26;horizontalStack=0;resizeParent=1;resizeParentMax=0;resizeLast=0;collapsible=1;marginBottom=0;whiteSpace=wrap;html=1;" vertex="1" parent="VsVcQcCOclfDHJGfPfXY-103">
          <mxGeometry width="160" height="138" as="geometry" />
        </mxCell>
        <mxCell id="VsVcQcCOclfDHJGfPfXY-37" value="+ settled: u256" style="text;strokeColor=none;fillColor=none;align=left;verticalAlign=top;spacingLeft=4;spacingRight=4;overflow=hidden;rotatable=0;points=[[0,0.5],[1,0.5]];portConstraint=eastwest;whiteSpace=wrap;html=1;" vertex="1" parent="VsVcQcCOclfDHJGfPfXY-36">
          <mxGeometry y="26" width="160" height="26" as="geometry" />
        </mxCell>
        <mxCell id="VsVcQcCOclfDHJGfPfXY-40" value="+ stake: u256" style="text;strokeColor=none;fillColor=none;align=left;verticalAlign=top;spacingLeft=4;spacingRight=4;overflow=hidden;rotatable=0;points=[[0,0.5],[1,0.5]];portConstraint=eastwest;whiteSpace=wrap;html=1;" vertex="1" parent="VsVcQcCOclfDHJGfPfXY-36">
          <mxGeometry y="52" width="160" height="26" as="geometry" />
        </mxCell>
        <mxCell id="VsVcQcCOclfDHJGfPfXY-41" value="+ lastUsedNonce: u256&lt;div&gt;&lt;br&gt;&lt;/div&gt;" style="text;strokeColor=none;fillColor=none;align=left;verticalAlign=top;spacingLeft=4;spacingRight=4;overflow=hidden;rotatable=0;points=[[0,0.5],[1,0.5]];portConstraint=eastwest;whiteSpace=wrap;html=1;" vertex="1" parent="VsVcQcCOclfDHJGfPfXY-36">
          <mxGeometry y="78" width="160" height="26" as="geometry" />
        </mxCell>
        <mxCell id="VsVcQcCOclfDHJGfPfXY-42" value="+ timeLock: u256&lt;div&gt;&lt;br&gt;&lt;/div&gt;" style="text;strokeColor=none;fillColor=none;align=left;verticalAlign=top;spacingLeft=4;spacingRight=4;overflow=hidden;rotatable=0;points=[[0,0.5],[1,0.5]];portConstraint=eastwest;whiteSpace=wrap;html=1;" vertex="1" parent="VsVcQcCOclfDHJGfPfXY-36">
          <mxGeometry y="104" width="160" height="26" as="geometry" />
        </mxCell>
        <mxCell id="VsVcQcCOclfDHJGfPfXY-38" value="" style="line;strokeWidth=1;fillColor=none;align=left;verticalAlign=middle;spacingTop=-1;spacingLeft=3;spacingRight=3;rotatable=0;labelPosition=right;points=[];portConstraint=eastwest;strokeColor=inherit;" vertex="1" parent="VsVcQcCOclfDHJGfPfXY-36">
          <mxGeometry y="130" width="160" height="8" as="geometry" />
        </mxCell>
        <mxCell id="VsVcQcCOclfDHJGfPfXY-43" value="amount staked by identity to guarante channel size, it also serves as channel balance" style="text;whiteSpace=wrap;align=left;verticalAlign=middle;fontSize=11;" vertex="1" parent="VsVcQcCOclfDHJGfPfXY-103">
          <mxGeometry x="160" y="52" width="450" height="30" as="geometry" />
        </mxCell>
        <mxCell id="VsVcQcCOclfDHJGfPfXY-44" value="last known nonce, is used to protect signature based calls from replay attack" style="text;whiteSpace=wrap;verticalAlign=middle;" vertex="1" parent="VsVcQcCOclfDHJGfPfXY-103">
          <mxGeometry x="160" y="83" width="440" height="20" as="geometry" />
        </mxCell>
        <mxCell id="VsVcQcCOclfDHJGfPfXY-45" value="&lt;span style=&quot;color: rgb(0, 0, 0); font-family: Helvetica; font-style: normal; font-variant-ligatures: normal; font-variant-caps: normal; font-weight: 400; letter-spacing: normal; orphans: 2; text-align: left; text-indent: 0px; text-transform: none; widows: 2; word-spacing: 0px; -webkit-text-stroke-width: 0px; white-space: normal; background-color: rgb(251, 251, 251); text-decoration-thickness: initial; text-decoration-style: initial; text-decoration-color: initial; float: none; display: inline !important;&quot;&gt;total amount already settled by provider&lt;/span&gt;" style="text;whiteSpace=wrap;html=1;verticalAlign=middle;fontSize=13;" vertex="1" parent="VsVcQcCOclfDHJGfPfXY-103">
          <mxGeometry x="160" y="30" width="310" height="20" as="geometry" />
        </mxCell>
        <mxCell id="VsVcQcCOclfDHJGfPfXY-46" value="blocknumber after which channel balance can be decreased" style="text;whiteSpace=wrap;verticalAlign=middle;" vertex="1" parent="VsVcQcCOclfDHJGfPfXY-103">
          <mxGeometry x="160" y="110" width="350" height="20" as="geometry" />
        </mxCell>
        <mxCell id="VsVcQcCOclfDHJGfPfXY-105" value="Registry" style="swimlane;fontStyle=1;align=center;verticalAlign=top;childLayout=stackLayout;horizontal=1;startSize=26;horizontalStack=0;resizeParent=1;resizeParentMax=0;resizeLast=0;collapsible=1;marginBottom=0;whiteSpace=wrap;html=1;" vertex="1" parent="1">
          <mxGeometry x="1980" y="410" width="260" height="216" as="geometry" />
        </mxCell>
        <mxCell id="VsVcQcCOclfDHJGfPfXY-106" value="+ settled: u256" style="text;strokeColor=none;fillColor=none;align=left;verticalAlign=top;spacingLeft=4;spacingRight=4;overflow=hidden;rotatable=0;points=[[0,0.5],[1,0.5]];portConstraint=eastwest;whiteSpace=wrap;html=1;" vertex="1" parent="VsVcQcCOclfDHJGfPfXY-105">
          <mxGeometry y="26" width="260" height="26" as="geometry" />
        </mxCell>
        <mxCell id="VsVcQcCOclfDHJGfPfXY-107" value="+ stake: u256" style="text;strokeColor=none;fillColor=none;align=left;verticalAlign=top;spacingLeft=4;spacingRight=4;overflow=hidden;rotatable=0;points=[[0,0.5],[1,0.5]];portConstraint=eastwest;whiteSpace=wrap;html=1;" vertex="1" parent="VsVcQcCOclfDHJGfPfXY-105">
          <mxGeometry y="52" width="260" height="26" as="geometry" />
        </mxCell>
        <mxCell id="VsVcQcCOclfDHJGfPfXY-108" value="+ lastUsedNonce: u256&lt;div&gt;&lt;br&gt;&lt;/div&gt;" style="text;strokeColor=none;fillColor=none;align=left;verticalAlign=top;spacingLeft=4;spacingRight=4;overflow=hidden;rotatable=0;points=[[0,0.5],[1,0.5]];portConstraint=eastwest;whiteSpace=wrap;html=1;" vertex="1" parent="VsVcQcCOclfDHJGfPfXY-105">
          <mxGeometry y="78" width="260" height="26" as="geometry" />
        </mxCell>
        <mxCell id="VsVcQcCOclfDHJGfPfXY-109" value="+ timeLock: u256&lt;div&gt;&lt;br&gt;&lt;/div&gt;" style="text;strokeColor=none;fillColor=none;align=left;verticalAlign=top;spacingLeft=4;spacingRight=4;overflow=hidden;rotatable=0;points=[[0,0.5],[1,0.5]];portConstraint=eastwest;whiteSpace=wrap;html=1;" vertex="1" parent="VsVcQcCOclfDHJGfPfXY-105">
          <mxGeometry y="104" width="260" height="26" as="geometry" />
        </mxCell>
        <mxCell id="VsVcQcCOclfDHJGfPfXY-110" value="" style="line;strokeWidth=1;fillColor=none;align=left;verticalAlign=middle;spacingTop=-1;spacingLeft=3;spacingRight=3;rotatable=0;labelPosition=right;points=[];portConstraint=eastwest;strokeColor=inherit;" vertex="1" parent="VsVcQcCOclfDHJGfPfXY-105">
          <mxGeometry y="130" width="260" height="8" as="geometry" />
        </mxCell>
        <mxCell id="VsVcQcCOclfDHJGfPfXY-111" value="+ RegisterIdentity(_identity Pubkey)" style="text;strokeColor=none;fillColor=none;align=left;verticalAlign=middle;spacingLeft=4;spacingRight=4;overflow=hidden;rotatable=0;points=[[0,0.5],[1,0.5]];portConstraint=eastwest;whiteSpace=wrap;html=1;" vertex="1" parent="VsVcQcCOclfDHJGfPfXY-105">
          <mxGeometry y="138" width="260" height="26" as="geometry" />
        </mxCell>
        <mxCell id="VsVcQcCOclfDHJGfPfXY-112" value="+ OpenConsumerChannel(_identity Pubkey)" style="text;strokeColor=none;fillColor=none;align=left;verticalAlign=middle;spacingLeft=4;spacingRight=4;overflow=hidden;rotatable=0;points=[[0,0.5],[1,0.5]];portConstraint=eastwest;whiteSpace=wrap;html=1;" vertex="1" parent="VsVcQcCOclfDHJGfPfXY-105">
          <mxGeometry y="164" width="260" height="26" as="geometry" />
        </mxCell>
        <mxCell id="VsVcQcCOclfDHJGfPfXY-113" value="+ Transfer(_to Pubkey, _amount u256)" style="text;strokeColor=none;fillColor=none;align=left;verticalAlign=middle;spacingLeft=4;spacingRight=4;overflow=hidden;rotatable=0;points=[[0,0.5],[1,0.5]];portConstraint=eastwest;whiteSpace=wrap;html=1;" vertex="1" parent="VsVcQcCOclfDHJGfPfXY-105">
          <mxGeometry y="190" width="260" height="26" as="geometry" />
        </mxCell>
        <mxCell id="VsVcQcCOclfDHJGfPfXY-115" value="" style="fontStyle=1;align=center;verticalAlign=middle;childLayout=stackLayout;horizontal=1;horizontalStack=0;resizeParent=1;resizeParentMax=0;resizeLast=0;marginBottom=0;" vertex="1" parent="1">
          <mxGeometry x="1005" y="539" width="380" height="124" as="geometry" />
        </mxCell>
        <mxCell id="VsVcQcCOclfDHJGfPfXY-116" value="&amp;lt;&amp;lt;Interface&amp;gt;&amp;gt;" style="html=1;align=center;spacing=0;verticalAlign=middle;strokeColor=none;fillColor=none;whiteSpace=wrap;" vertex="1" parent="VsVcQcCOclfDHJGfPfXY-115">
          <mxGeometry width="380" height="18" as="geometry" />
        </mxCell>
        <mxCell id="VsVcQcCOclfDHJGfPfXY-117" value="IRegistry" style="html=1;align=center;spacing=0;verticalAlign=middle;strokeColor=none;fillColor=none;whiteSpace=wrap;fontStyle=1;" vertex="1" parent="VsVcQcCOclfDHJGfPfXY-115">
          <mxGeometry y="18" width="380" height="18" as="geometry" />
        </mxCell>
        <mxCell id="VsVcQcCOclfDHJGfPfXY-118" value="" style="line;strokeWidth=0.25;fillColor=none;align=left;verticalAlign=middle;spacingTop=-1;spacingLeft=3;spacingRight=3;rotatable=0;labelPosition=right;points=[];portConstraint=eastwest;" vertex="1" parent="VsVcQcCOclfDHJGfPfXY-115">
          <mxGeometry y="36" width="380" height="8" as="geometry" />
        </mxCell>
        <mxCell id="VsVcQcCOclfDHJGfPfXY-119" value="isRegistered(_identity Pubkey): bool" style="html=1;align=left;spacing=0;spacingLeft=10;verticalAlign=middle;strokeColor=none;fillColor=none;whiteSpace=wrap;" vertex="1" parent="VsVcQcCOclfDHJGfPfXY-115">
          <mxGeometry y="44" width="380" height="16" as="geometry" />
        </mxCell>
        <mxCell id="VsVcQcCOclfDHJGfPfXY-121" value="minimalHermesStake(): u256" style="html=1;align=left;spacing=0;spacingLeft=10;verticalAlign=middle;strokeColor=none;fillColor=none;whiteSpace=wrap;" vertex="1" parent="VsVcQcCOclfDHJGfPfXY-115">
          <mxGeometry y="60" width="380" height="16" as="geometry" />
        </mxCell>
        <mxCell id="VsVcQcCOclfDHJGfPfXY-122" value="getChannelAddress(_identity, _hermesId Pubkey): Pubkey" style="html=1;align=left;spacing=0;spacingLeft=10;verticalAlign=middle;strokeColor=none;fillColor=none;whiteSpace=wrap;" vertex="1" parent="VsVcQcCOclfDHJGfPfXY-115">
          <mxGeometry y="76" width="380" height="16" as="geometry" />
        </mxCell>
        <mxCell id="VsVcQcCOclfDHJGfPfXY-123" value="getBeneficiary(_identity Pubkey): Pubkey" style="html=1;align=left;spacing=0;spacingLeft=10;verticalAlign=middle;strokeColor=none;fillColor=none;whiteSpace=wrap;" vertex="1" parent="VsVcQcCOclfDHJGfPfXY-115">
          <mxGeometry y="92" width="380" height="16" as="geometry" />
        </mxCell>
        <mxCell id="VsVcQcCOclfDHJGfPfXY-124" value="setBeneficiary(_identity, _newBeneficiary Pubkey, _signature byte[])" style="html=1;align=left;spacing=0;spacingLeft=10;verticalAlign=middle;strokeColor=none;fillColor=none;whiteSpace=wrap;" vertex="1" parent="VsVcQcCOclfDHJGfPfXY-115">
          <mxGeometry y="108" width="380" height="16" as="geometry" />
        </mxCell>
        <mxCell id="VsVcQcCOclfDHJGfPfXY-125" style="edgeStyle=orthogonalEdgeStyle;rounded=0;orthogonalLoop=1;jettySize=auto;html=1;entryX=0.5;entryY=0;entryDx=0;entryDy=0;endArrow=diamond;endFill=0;" edge="1" parent="1" source="VsVcQcCOclfDHJGfPfXY-124" target="VsVcQcCOclfDHJGfPfXY-66">
          <mxGeometry relative="1" as="geometry" />
        </mxCell>
        <mxCell id="VsVcQcCOclfDHJGfPfXY-201" style="edgeStyle=orthogonalEdgeStyle;rounded=0;orthogonalLoop=1;jettySize=auto;html=1;entryX=0.5;entryY=0;entryDx=0;entryDy=0;endArrow=diamond;endFill=0;" edge="1" parent="1" source="VsVcQcCOclfDHJGfPfXY-126" target="VsVcQcCOclfDHJGfPfXY-183">
          <mxGeometry relative="1" as="geometry" />
        </mxCell>
        <mxCell id="VsVcQcCOclfDHJGfPfXY-126" value="" style="fontStyle=1;align=center;verticalAlign=middle;childLayout=stackLayout;horizontal=1;horizontalStack=0;resizeParent=1;resizeParentMax=0;resizeLast=0;marginBottom=0;" vertex="1" parent="1">
          <mxGeometry x="360" y="865" width="380" height="60" as="geometry" />
        </mxCell>
        <mxCell id="VsVcQcCOclfDHJGfPfXY-127" value="&amp;lt;&amp;lt;Interface&amp;gt;&amp;gt;" style="html=1;align=center;spacing=0;verticalAlign=middle;strokeColor=none;fillColor=none;whiteSpace=wrap;" vertex="1" parent="VsVcQcCOclfDHJGfPfXY-126">
          <mxGeometry width="380" height="18" as="geometry" />
        </mxCell>
        <mxCell id="VsVcQcCOclfDHJGfPfXY-128" value="IChannel" style="html=1;align=center;spacing=0;verticalAlign=middle;strokeColor=none;fillColor=none;whiteSpace=wrap;fontStyle=1;" vertex="1" parent="VsVcQcCOclfDHJGfPfXY-126">
          <mxGeometry y="18" width="380" height="18" as="geometry" />
        </mxCell>
        <mxCell id="VsVcQcCOclfDHJGfPfXY-129" value="" style="line;strokeWidth=0.25;fillColor=none;align=left;verticalAlign=middle;spacingTop=-1;spacingLeft=3;spacingRight=3;rotatable=0;labelPosition=right;points=[];portConstraint=eastwest;" vertex="1" parent="VsVcQcCOclfDHJGfPfXY-126">
          <mxGeometry y="36" width="380" height="8" as="geometry" />
        </mxCell>
        <mxCell id="VsVcQcCOclfDHJGfPfXY-130" value="initialize(_token, _identityHash, _mainSC Pubkey, _fee u256)" style="html=1;align=left;spacing=0;spacingLeft=10;verticalAlign=middle;strokeColor=none;fillColor=none;whiteSpace=wrap;" vertex="1" parent="VsVcQcCOclfDHJGfPfXY-126">
          <mxGeometry y="44" width="380" height="16" as="geometry" />
        </mxCell>
        <mxCell id="VsVcQcCOclfDHJGfPfXY-136" value="" style="fontStyle=1;align=center;verticalAlign=middle;childLayout=stackLayout;horizontal=1;horizontalStack=0;resizeParent=1;resizeParentMax=0;resizeLast=0;marginBottom=0;" vertex="1" parent="1">
          <mxGeometry x="1450" y="570" width="520" height="76" as="geometry" />
        </mxCell>
        <mxCell id="VsVcQcCOclfDHJGfPfXY-137" value="&amp;lt;&amp;lt;Interface&amp;gt;&amp;gt;" style="html=1;align=center;spacing=0;verticalAlign=middle;strokeColor=none;fillColor=none;whiteSpace=wrap;" vertex="1" parent="VsVcQcCOclfDHJGfPfXY-136">
          <mxGeometry width="520" height="18" as="geometry" />
        </mxCell>
        <mxCell id="VsVcQcCOclfDHJGfPfXY-138" value="IECDSA" style="html=1;align=center;spacing=0;verticalAlign=middle;strokeColor=none;fillColor=none;whiteSpace=wrap;fontStyle=1;" vertex="1" parent="VsVcQcCOclfDHJGfPfXY-136">
          <mxGeometry y="18" width="520" height="18" as="geometry" />
        </mxCell>
        <mxCell id="VsVcQcCOclfDHJGfPfXY-139" value="" style="line;strokeWidth=0.25;fillColor=none;align=left;verticalAlign=middle;spacingTop=-1;spacingLeft=3;spacingRight=3;rotatable=0;labelPosition=right;points=[];portConstraint=eastwest;" vertex="1" parent="VsVcQcCOclfDHJGfPfXY-136">
          <mxGeometry y="36" width="520" height="8" as="geometry" />
        </mxCell>
        <mxCell id="VsVcQcCOclfDHJGfPfXY-141" value="recover(_mainSC, _beneficiary, _registry Pubkey, _stake, transactor Fee, _signature): Pubkey" style="html=1;align=left;spacing=0;spacingLeft=10;verticalAlign=middle;strokeColor=none;fillColor=none;whiteSpace=wrap;" vertex="1" parent="VsVcQcCOclfDHJGfPfXY-136">
          <mxGeometry y="44" width="520" height="16" as="geometry" />
        </mxCell>
        <mxCell id="VsVcQcCOclfDHJGfPfXY-140" value="recover(_channlId, _beneficiary Pubkey, _amount u256, _preimage, _signature byte[]): Pubkey" style="html=1;align=left;spacing=0;spacingLeft=10;verticalAlign=middle;strokeColor=none;fillColor=none;whiteSpace=wrap;" vertex="1" parent="VsVcQcCOclfDHJGfPfXY-136">
          <mxGeometry y="60" width="520" height="16" as="geometry" />
        </mxCell>
        <mxCell id="VsVcQcCOclfDHJGfPfXY-142" style="edgeStyle=orthogonalEdgeStyle;rounded=0;orthogonalLoop=1;jettySize=auto;html=1;entryX=0.5;entryY=0;entryDx=0;entryDy=0;endArrow=diamond;endFill=0;" edge="1" parent="1" source="VsVcQcCOclfDHJGfPfXY-140" target="VsVcQcCOclfDHJGfPfXY-76">
          <mxGeometry relative="1" as="geometry">
            <Array as="points">
              <mxPoint x="1710" y="840" />
              <mxPoint x="1775" y="840" />
            </Array>
          </mxGeometry>
        </mxCell>
        <mxCell id="VsVcQcCOclfDHJGfPfXY-144" style="edgeStyle=orthogonalEdgeStyle;rounded=0;orthogonalLoop=1;jettySize=auto;html=1;endArrow=none;endFill=0;startArrow=ERmany;startFill=0;" edge="1" parent="1" source="VsVcQcCOclfDHJGfPfXY-36" target="VsVcQcCOclfDHJGfPfXY-88">
          <mxGeometry relative="1" as="geometry" />
        </mxCell>
        <mxCell id="VsVcQcCOclfDHJGfPfXY-163" style="edgeStyle=orthogonalEdgeStyle;rounded=0;orthogonalLoop=1;jettySize=auto;html=1;entryX=0.5;entryY=0;entryDx=0;entryDy=0;startArrow=none;startFill=0;endArrow=diamond;endFill=0;" edge="1" parent="1" source="VsVcQcCOclfDHJGfPfXY-153" target="VsVcQcCOclfDHJGfPfXY-76">
          <mxGeometry relative="1" as="geometry" />
        </mxCell>
        <mxCell id="VsVcQcCOclfDHJGfPfXY-153" value="" style="fontStyle=1;align=center;verticalAlign=middle;childLayout=stackLayout;horizontal=1;horizontalStack=0;resizeParent=1;resizeParentMax=0;resizeLast=0;marginBottom=0;" vertex="1" parent="1">
          <mxGeometry x="1510" y="680" width="530" height="124" as="geometry" />
        </mxCell>
        <mxCell id="VsVcQcCOclfDHJGfPfXY-154" value="&amp;lt;&amp;lt;Interface&amp;gt;&amp;gt;" style="html=1;align=center;spacing=0;verticalAlign=middle;strokeColor=none;fillColor=none;whiteSpace=wrap;" vertex="1" parent="VsVcQcCOclfDHJGfPfXY-153">
          <mxGeometry width="530" height="18" as="geometry" />
        </mxCell>
        <mxCell id="VsVcQcCOclfDHJGfPfXY-155" value="IMain" style="html=1;align=center;spacing=0;verticalAlign=middle;strokeColor=none;fillColor=none;whiteSpace=wrap;fontStyle=1;" vertex="1" parent="VsVcQcCOclfDHJGfPfXY-153">
          <mxGeometry y="18" width="530" height="18" as="geometry" />
        </mxCell>
        <mxCell id="VsVcQcCOclfDHJGfPfXY-156" value="" style="line;strokeWidth=0.25;fillColor=none;align=left;verticalAlign=middle;spacingTop=-1;spacingLeft=3;spacingRight=3;rotatable=0;labelPosition=right;points=[];portConstraint=eastwest;" vertex="1" parent="VsVcQcCOclfDHJGfPfXY-153">
          <mxGeometry y="36" width="530" height="8" as="geometry" />
        </mxCell>
        <mxCell id="VsVcQcCOclfDHJGfPfXY-158" value="initialize(_token, _operator, _routerAddress Pubkey, _hermesFee, _minStake, _maxStake u256)" style="html=1;align=left;spacing=0;spacingLeft=10;verticalAlign=middle;strokeColor=none;fillColor=none;whiteSpace=wrap;" vertex="1" parent="VsVcQcCOclfDHJGfPfXY-153">
          <mxGeometry y="44" width="530" height="16" as="geometry" />
        </mxCell>
        <mxCell id="VsVcQcCOclfDHJGfPfXY-159" value="openChannel(_party Pubkey, _amountToLend u256)" style="html=1;align=left;spacing=0;spacingLeft=10;verticalAlign=middle;strokeColor=none;fillColor=none;whiteSpace=wrap;" vertex="1" parent="VsVcQcCOclfDHJGfPfXY-153">
          <mxGeometry y="60" width="530" height="16" as="geometry" />
        </mxCell>
        <mxCell id="VsVcQcCOclfDHJGfPfXY-162" value="getOperator(): Pubkey" style="html=1;align=left;spacing=0;spacingLeft=10;verticalAlign=middle;strokeColor=none;fillColor=none;whiteSpace=wrap;" vertex="1" parent="VsVcQcCOclfDHJGfPfXY-153">
          <mxGeometry y="76" width="530" height="16" as="geometry" />
        </mxCell>
        <mxCell id="VsVcQcCOclfDHJGfPfXY-161" value="getStake(): u256" style="html=1;align=left;spacing=0;spacingLeft=10;verticalAlign=middle;strokeColor=none;fillColor=none;whiteSpace=wrap;" vertex="1" parent="VsVcQcCOclfDHJGfPfXY-153">
          <mxGeometry y="92" width="530" height="16" as="geometry" />
        </mxCell>
        <mxCell id="VsVcQcCOclfDHJGfPfXY-160" value="getStatus(): Status" style="html=1;align=left;spacing=0;spacingLeft=10;verticalAlign=middle;strokeColor=none;fillColor=none;whiteSpace=wrap;" vertex="1" parent="VsVcQcCOclfDHJGfPfXY-153">
          <mxGeometry y="108" width="530" height="16" as="geometry" />
        </mxCell>
        <mxCell id="VsVcQcCOclfDHJGfPfXY-165" style="edgeStyle=orthogonalEdgeStyle;rounded=0;orthogonalLoop=1;jettySize=auto;html=1;entryX=0.5;entryY=0;entryDx=0;entryDy=0;endArrow=diamond;endFill=0;" edge="1" parent="1" source="VsVcQcCOclfDHJGfPfXY-159" target="VsVcQcCOclfDHJGfPfXY-66">
          <mxGeometry relative="1" as="geometry" />
        </mxCell>
        <mxCell id="VsVcQcCOclfDHJGfPfXY-167" style="edgeStyle=orthogonalEdgeStyle;rounded=0;orthogonalLoop=1;jettySize=auto;html=1;exitX=0;exitY=1;exitDx=0;exitDy=0;endArrow=diamond;endFill=0;" edge="1" parent="1" source="VsVcQcCOclfDHJGfPfXY-140" target="VsVcQcCOclfDHJGfPfXY-66">
          <mxGeometry relative="1" as="geometry" />
        </mxCell>
        <mxCell id="VsVcQcCOclfDHJGfPfXY-183" value="Channel" style="swimlane;fontStyle=1;align=center;verticalAlign=top;childLayout=stackLayout;horizontal=1;startSize=26;horizontalStack=0;resizeParent=1;resizeParentMax=0;resizeLast=0;collapsible=1;marginBottom=0;whiteSpace=wrap;html=1;" vertex="1" parent="1">
          <mxGeometry x="355" y="1055" width="390" height="216" as="geometry" />
        </mxCell>
        <mxCell id="VsVcQcCOclfDHJGfPfXY-184" value="+ EXIT_PRFIX = &quot;Exit Request&quot;" style="text;strokeColor=none;fillColor=none;align=left;verticalAlign=top;spacingLeft=4;spacingRight=4;overflow=hidden;rotatable=0;points=[[0,0.5],[1,0.5]];portConstraint=eastwest;whiteSpace=wrap;html=1;" vertex="1" parent="VsVcQcCOclfDHJGfPfXY-183">
          <mxGeometry y="26" width="390" height="26" as="geometry" />
        </mxCell>
        <mxCell id="VsVcQcCOclfDHJGfPfXY-186" value="+ lastNonce: u256&lt;div&gt;&lt;br&gt;&lt;/div&gt;" style="text;strokeColor=none;fillColor=none;align=left;verticalAlign=top;spacingLeft=4;spacingRight=4;overflow=hidden;rotatable=0;points=[[0,0.5],[1,0.5]];portConstraint=eastwest;whiteSpace=wrap;html=1;" vertex="1" parent="VsVcQcCOclfDHJGfPfXY-183">
          <mxGeometry y="52" width="390" height="26" as="geometry" />
        </mxCell>
        <mxCell id="VsVcQcCOclfDHJGfPfXY-185" value="+ stake: u256" style="text;strokeColor=none;fillColor=none;align=left;verticalAlign=top;spacingLeft=4;spacingRight=4;overflow=hidden;rotatable=0;points=[[0,0.5],[1,0.5]];portConstraint=eastwest;whiteSpace=wrap;html=1;" vertex="1" parent="VsVcQcCOclfDHJGfPfXY-183">
          <mxGeometry y="78" width="390" height="26" as="geometry" />
        </mxCell>
        <mxCell id="VsVcQcCOclfDHJGfPfXY-187" value="+ timeLock: u256&lt;div&gt;&lt;br&gt;&lt;/div&gt;" style="text;strokeColor=none;fillColor=none;align=left;verticalAlign=top;spacingLeft=4;spacingRight=4;overflow=hidden;rotatable=0;points=[[0,0.5],[1,0.5]];portConstraint=eastwest;whiteSpace=wrap;html=1;" vertex="1" parent="VsVcQcCOclfDHJGfPfXY-183">
          <mxGeometry y="104" width="390" height="26" as="geometry" />
        </mxCell>
        <mxCell id="VsVcQcCOclfDHJGfPfXY-188" value="" style="line;strokeWidth=1;fillColor=none;align=left;verticalAlign=middle;spacingTop=-1;spacingLeft=3;spacingRight=3;rotatable=0;labelPosition=right;points=[];portConstraint=eastwest;strokeColor=inherit;" vertex="1" parent="VsVcQcCOclfDHJGfPfXY-183">
          <mxGeometry y="130" width="390" height="8" as="geometry" />
        </mxCell>
        <mxCell id="VsVcQcCOclfDHJGfPfXY-189" value="+ IsInitialized(): bool" style="text;strokeColor=none;fillColor=none;align=left;verticalAlign=middle;spacingLeft=4;spacingRight=4;overflow=hidden;rotatable=0;points=[[0,0.5],[1,0.5]];portConstraint=eastwest;whiteSpace=wrap;html=1;" vertex="1" parent="VsVcQcCOclfDHJGfPfXY-183">
          <mxGeometry y="138" width="390" height="26" as="geometry" />
        </mxCell>
        <mxCell id="VsVcQcCOclfDHJGfPfXY-190" value="+ SettlePromise(_amount, transactorFee u256, _lock, signature byte[])" style="text;strokeColor=none;fillColor=none;align=left;verticalAlign=middle;spacingLeft=4;spacingRight=4;overflow=hidden;rotatable=0;points=[[0,0.5],[1,0.5]];portConstraint=eastwest;whiteSpace=wrap;html=1;" vertex="1" parent="VsVcQcCOclfDHJGfPfXY-183">
          <mxGeometry y="164" width="390" height="26" as="geometry" />
        </mxCell>
        <mxCell id="VsVcQcCOclfDHJGfPfXY-191" value="+ Transfer(_to Pubkey, _amount u256)" style="text;strokeColor=none;fillColor=none;align=left;verticalAlign=middle;spacingLeft=4;spacingRight=4;overflow=hidden;rotatable=0;points=[[0,0.5],[1,0.5]];portConstraint=eastwest;whiteSpace=wrap;html=1;" vertex="1" parent="VsVcQcCOclfDHJGfPfXY-183">
          <mxGeometry y="190" width="390" height="26" as="geometry" />
        </mxCell>
        <mxCell id="VsVcQcCOclfDHJGfPfXY-192" value="ExitRequest" style="swimlane;fontStyle=1;align=center;verticalAlign=top;childLayout=stackLayout;horizontal=1;startSize=26;horizontalStack=0;resizeParent=1;resizeParentMax=0;resizeLast=0;collapsible=1;marginBottom=0;whiteSpace=wrap;html=1;" vertex="1" parent="1">
          <mxGeometry x="120" y="1055" width="140" height="86" as="geometry" />
        </mxCell>
        <mxCell id="VsVcQcCOclfDHJGfPfXY-193" value="+ beneficiary: Pubkey" style="text;strokeColor=none;fillColor=none;align=left;verticalAlign=top;spacingLeft=4;spacingRight=4;overflow=hidden;rotatable=0;points=[[0,0.5],[1,0.5]];portConstraint=eastwest;whiteSpace=wrap;html=1;" vertex="1" parent="VsVcQcCOclfDHJGfPfXY-192">
          <mxGeometry y="26" width="140" height="26" as="geometry" />
        </mxCell>
        <mxCell id="VsVcQcCOclfDHJGfPfXY-196" value="+ timeLock: u256&lt;div&gt;&lt;br&gt;&lt;/div&gt;" style="text;strokeColor=none;fillColor=none;align=left;verticalAlign=top;spacingLeft=4;spacingRight=4;overflow=hidden;rotatable=0;points=[[0,0.5],[1,0.5]];portConstraint=eastwest;whiteSpace=wrap;html=1;" vertex="1" parent="VsVcQcCOclfDHJGfPfXY-192">
          <mxGeometry y="52" width="140" height="26" as="geometry" />
        </mxCell>
        <mxCell id="VsVcQcCOclfDHJGfPfXY-197" value="" style="line;strokeWidth=1;fillColor=none;align=left;verticalAlign=middle;spacingTop=-1;spacingLeft=3;spacingRight=3;rotatable=0;labelPosition=right;points=[];portConstraint=eastwest;strokeColor=inherit;" vertex="1" parent="VsVcQcCOclfDHJGfPfXY-192">
          <mxGeometry y="78" width="140" height="8" as="geometry" />
        </mxCell>
        <mxCell id="VsVcQcCOclfDHJGfPfXY-202" value="Code" parent="0" />
        <mxCell id="VsVcQcCOclfDHJGfPfXY-267" value="" style="group" vertex="1" connectable="0" parent="VsVcQcCOclfDHJGfPfXY-202">
          <mxGeometry x="250" y="4070" width="1684" height="1703" as="geometry" />
        </mxCell>
        <mxCell id="VsVcQcCOclfDHJGfPfXY-215" value="Data Management" style="whiteSpace=wrap;strokeWidth=2;" vertex="1" parent="VsVcQcCOclfDHJGfPfXY-267">
          <mxGeometry x="985" width="209" height="282" as="geometry" />
        </mxCell>
        <mxCell id="VsVcQcCOclfDHJGfPfXY-216" value="Security and Utilities" style="whiteSpace=wrap;strokeWidth=2;" vertex="1" parent="VsVcQcCOclfDHJGfPfXY-267">
          <mxGeometry x="985" y="302" width="699" height="519" as="geometry" />
        </mxCell>
        <mxCell id="VsVcQcCOclfDHJGfPfXY-217" value="Interfaces" style="whiteSpace=wrap;strokeWidth=2;" vertex="1" parent="VsVcQcCOclfDHJGfPfXY-267">
          <mxGeometry x="985" y="840" width="209" height="598" as="geometry" />
        </mxCell>
        <mxCell id="VsVcQcCOclfDHJGfPfXY-218" value="Core Functionality" style="whiteSpace=wrap;strokeWidth=2;" vertex="1" parent="VsVcQcCOclfDHJGfPfXY-267">
          <mxGeometry y="25" width="830" height="1381" as="geometry" />
        </mxCell>
        <mxCell id="VsVcQcCOclfDHJGfPfXY-219" value="Registry" style="rounded=1;arcSize=20;strokeWidth=2" vertex="1" parent="VsVcQcCOclfDHJGfPfXY-267">
          <mxGeometry x="41" y="916" width="87" height="54" as="geometry" />
        </mxCell>
        <mxCell id="VsVcQcCOclfDHJGfPfXY-220" value="ChannelImplementation" style="rounded=1;arcSize=20;strokeWidth=2" vertex="1" parent="VsVcQcCOclfDHJGfPfXY-267">
          <mxGeometry x="252" y="996" width="201" height="54" as="geometry" />
        </mxCell>
        <mxCell id="VsVcQcCOclfDHJGfPfXY-221" value="HermesImplementation" style="rounded=1;arcSize=20;strokeWidth=2" vertex="1" parent="VsVcQcCOclfDHJGfPfXY-267">
          <mxGeometry x="608" y="864" width="198" height="54" as="geometry" />
        </mxCell>
        <mxCell id="VsVcQcCOclfDHJGfPfXY-222" value="IUniswapV2Router" style="rounded=1;arcSize=20;strokeWidth=2" vertex="1" parent="VsVcQcCOclfDHJGfPfXY-267">
          <mxGeometry x="1010" y="912" width="159" height="54" as="geometry" />
        </mxCell>
        <mxCell id="VsVcQcCOclfDHJGfPfXY-223" value="IERC20Token" style="rounded=1;arcSize=20;strokeWidth=2" vertex="1" parent="VsVcQcCOclfDHJGfPfXY-267">
          <mxGeometry x="1029" y="1037" width="120" height="54" as="geometry" />
        </mxCell>
        <mxCell id="VsVcQcCOclfDHJGfPfXY-224" value="Identities" style="ellipse;aspect=fixed;strokeWidth=2;whiteSpace=wrap;" vertex="1" parent="VsVcQcCOclfDHJGfPfXY-267">
          <mxGeometry x="1048" y="35" width="83" height="83" as="geometry" />
        </mxCell>
        <mxCell id="VsVcQcCOclfDHJGfPfXY-225" value="Channels" style="ellipse;aspect=fixed;strokeWidth=2;whiteSpace=wrap;" vertex="1" parent="VsVcQcCOclfDHJGfPfXY-267">
          <mxGeometry x="1050" y="168" width="79" height="79" as="geometry" />
        </mxCell>
        <mxCell id="VsVcQcCOclfDHJGfPfXY-226" value="FundsRecovery" style="rounded=1;arcSize=20;strokeWidth=2" vertex="1" parent="VsVcQcCOclfDHJGfPfXY-267">
          <mxGeometry x="1021" y="596" width="136" height="54" as="geometry" />
        </mxCell>
        <mxCell id="VsVcQcCOclfDHJGfPfXY-227" value="Ownable" style="rounded=1;arcSize=20;strokeWidth=2" vertex="1" parent="VsVcQcCOclfDHJGfPfXY-267">
          <mxGeometry x="1376" y="337" width="92" height="54" as="geometry" />
        </mxCell>
        <mxCell id="VsVcQcCOclfDHJGfPfXY-228" value="Utils" style="rounded=1;arcSize=20;strokeWidth=2" vertex="1" parent="VsVcQcCOclfDHJGfPfXY-267">
          <mxGeometry x="1058" y="461" width="62" height="54" as="geometry" />
        </mxCell>
        <mxCell id="VsVcQcCOclfDHJGfPfXY-229" value="ReentrancyGuard" style="rounded=1;arcSize=20;strokeWidth=2" vertex="1" parent="VsVcQcCOclfDHJGfPfXY-267">
          <mxGeometry x="1345" y="731" width="153" height="54" as="geometry" />
        </mxCell>
        <mxCell id="VsVcQcCOclfDHJGfPfXY-230" value="ECDSA" style="rounded=1;arcSize=20;strokeWidth=2" vertex="1" parent="VsVcQcCOclfDHJGfPfXY-267">
          <mxGeometry x="1584" y="592" width="75" height="54" as="geometry" />
        </mxCell>
        <mxCell id="VsVcQcCOclfDHJGfPfXY-231" value="IdentityRegistry" style="rounded=1;arcSize=20;strokeWidth=2" vertex="1" parent="VsVcQcCOclfDHJGfPfXY-267">
          <mxGeometry x="1018" y="1141" width="143" height="54" as="geometry" />
        </mxCell>
        <mxCell id="VsVcQcCOclfDHJGfPfXY-232" value="IHermesContract" style="rounded=1;arcSize=20;strokeWidth=2" vertex="1" parent="VsVcQcCOclfDHJGfPfXY-267">
          <mxGeometry x="1014" y="1245" width="150" height="54" as="geometry" />
        </mxCell>
        <mxCell id="VsVcQcCOclfDHJGfPfXY-233" value="IERC20" style="rounded=1;arcSize=20;strokeWidth=2" vertex="1" parent="VsVcQcCOclfDHJGfPfXY-267">
          <mxGeometry x="1050" y="1349" width="79" height="54" as="geometry" />
        </mxCell>
        <mxCell id="VsVcQcCOclfDHJGfPfXY-234" value="Core" style="whiteSpace=wrap;strokeWidth=2;" vertex="1" parent="VsVcQcCOclfDHJGfPfXY-267">
          <mxGeometry x="38" y="1441" width="93" height="54" as="geometry" />
        </mxCell>
        <mxCell id="VsVcQcCOclfDHJGfPfXY-235" value="Security" style="whiteSpace=wrap;strokeWidth=2;" vertex="1" parent="VsVcQcCOclfDHJGfPfXY-267">
          <mxGeometry x="25" y="1545" width="118" height="54" as="geometry" />
        </mxCell>
        <mxCell id="VsVcQcCOclfDHJGfPfXY-236" value="Data" style="whiteSpace=wrap;strokeWidth=2;" vertex="1" parent="VsVcQcCOclfDHJGfPfXY-267">
          <mxGeometry x="38" y="1649" width="93" height="54" as="geometry" />
        </mxCell>
        <mxCell id="VsVcQcCOclfDHJGfPfXY-237" value="deploys" style="curved=1;startArrow=none;endArrow=block;exitX=0.94;exitY=1.01;entryX=0;entryY=0.5;rounded=0;" edge="1" parent="VsVcQcCOclfDHJGfPfXY-267" source="VsVcQcCOclfDHJGfPfXY-219" target="VsVcQcCOclfDHJGfPfXY-220">
          <mxGeometry relative="1" as="geometry">
            <Array as="points">
              <mxPoint x="197" y="1023" />
            </Array>
          </mxGeometry>
        </mxCell>
        <mxCell id="VsVcQcCOclfDHJGfPfXY-238" value="deploys" style="curved=1;startArrow=none;endArrow=block;exitX=0.99;exitY=0.29;entryX=0;entryY=0.73;rounded=0;" edge="1" parent="VsVcQcCOclfDHJGfPfXY-267" source="VsVcQcCOclfDHJGfPfXY-219" target="VsVcQcCOclfDHJGfPfXY-221">
          <mxGeometry relative="1" as="geometry">
            <Array as="points">
              <mxPoint x="197" y="913" />
              <mxPoint x="531" y="913" />
            </Array>
          </mxGeometry>
        </mxCell>
        <mxCell id="VsVcQcCOclfDHJGfPfXY-239" value="interacts with" style="curved=1;startArrow=none;endArrow=block;exitX=0.67;exitY=0;entryX=0;entryY=0.4;rounded=0;" edge="1" parent="VsVcQcCOclfDHJGfPfXY-267" source="VsVcQcCOclfDHJGfPfXY-220" target="VsVcQcCOclfDHJGfPfXY-221">
          <mxGeometry relative="1" as="geometry">
            <Array as="points">
              <mxPoint x="531" y="881" />
            </Array>
          </mxGeometry>
        </mxCell>
        <mxCell id="VsVcQcCOclfDHJGfPfXY-240" value="interacts with" style="curved=1;startArrow=none;endArrow=block;exitX=0.25;exitY=0.01;entryX=0.73;entryY=0.01;rounded=0;" edge="1" parent="VsVcQcCOclfDHJGfPfXY-267" source="VsVcQcCOclfDHJGfPfXY-221" target="VsVcQcCOclfDHJGfPfXY-219">
          <mxGeometry relative="1" as="geometry">
            <Array as="points">
              <mxPoint x="531" y="794" />
              <mxPoint x="197" y="794" />
            </Array>
          </mxGeometry>
        </mxCell>
        <mxCell id="VsVcQcCOclfDHJGfPfXY-241" value="interacts with" style="curved=1;startArrow=none;endArrow=block;exitX=1;exitY=0.05;entryX=0.08;entryY=1;rounded=0;" edge="1" parent="VsVcQcCOclfDHJGfPfXY-267" source="VsVcQcCOclfDHJGfPfXY-220" target="VsVcQcCOclfDHJGfPfXY-222">
          <mxGeometry relative="1" as="geometry">
            <Array as="points">
              <mxPoint x="531" y="981" />
              <mxPoint x="985" y="981" />
            </Array>
          </mxGeometry>
        </mxCell>
        <mxCell id="VsVcQcCOclfDHJGfPfXY-242" value="interacts with" style="curved=1;startArrow=none;endArrow=block;exitX=1;exitY=0.51;entryX=0.12;entryY=0;rounded=0;" edge="1" parent="VsVcQcCOclfDHJGfPfXY-267" source="VsVcQcCOclfDHJGfPfXY-221" target="VsVcQcCOclfDHJGfPfXY-222">
          <mxGeometry relative="1" as="geometry">
            <Array as="points">
              <mxPoint x="985" y="891" />
            </Array>
          </mxGeometry>
        </mxCell>
        <mxCell id="VsVcQcCOclfDHJGfPfXY-243" value="interacts with" style="curved=1;startArrow=none;endArrow=block;exitX=0.69;exitY=1.01;entryX=0.13;entryY=1;rounded=0;" edge="1" parent="VsVcQcCOclfDHJGfPfXY-267" source="VsVcQcCOclfDHJGfPfXY-219" target="VsVcQcCOclfDHJGfPfXY-223">
          <mxGeometry relative="1" as="geometry">
            <Array as="points">
              <mxPoint x="197" y="1127" />
              <mxPoint x="985" y="1127" />
            </Array>
          </mxGeometry>
        </mxCell>
        <mxCell id="VsVcQcCOclfDHJGfPfXY-244" value="interacts with" style="curved=1;startArrow=none;endArrow=block;exitX=1;exitY=0.83;entryX=0;entryY=0.4;rounded=0;" edge="1" parent="VsVcQcCOclfDHJGfPfXY-267" source="VsVcQcCOclfDHJGfPfXY-220" target="VsVcQcCOclfDHJGfPfXY-223">
          <mxGeometry relative="1" as="geometry">
            <Array as="points">
              <mxPoint x="531" y="1054" />
              <mxPoint x="985" y="1054" />
            </Array>
          </mxGeometry>
        </mxCell>
        <mxCell id="VsVcQcCOclfDHJGfPfXY-245" value="interacts with" style="curved=1;startArrow=none;endArrow=block;exitX=0.64;exitY=1.01;entryX=0.05;entryY=0;rounded=0;" edge="1" parent="VsVcQcCOclfDHJGfPfXY-267" source="VsVcQcCOclfDHJGfPfXY-221" target="VsVcQcCOclfDHJGfPfXY-223">
          <mxGeometry relative="1" as="geometry">
            <Array as="points">
              <mxPoint x="830" y="1012" />
              <mxPoint x="985" y="1012" />
            </Array>
          </mxGeometry>
        </mxCell>
        <mxCell id="VsVcQcCOclfDHJGfPfXY-246" value="manages" style="curved=1;startArrow=none;endArrow=block;exitX=0.54;exitY=0.01;entryX=0;entryY=0.5;rounded=0;" edge="1" parent="VsVcQcCOclfDHJGfPfXY-267" source="VsVcQcCOclfDHJGfPfXY-219" target="VsVcQcCOclfDHJGfPfXY-224">
          <mxGeometry relative="1" as="geometry">
            <Array as="points">
              <mxPoint x="197" y="76" />
            </Array>
          </mxGeometry>
        </mxCell>
        <mxCell id="VsVcQcCOclfDHJGfPfXY-247" value="manages" style="curved=1;startArrow=none;endArrow=block;exitX=0.52;exitY=0.01;entryX=0;entryY=0.5;rounded=0;" edge="1" parent="VsVcQcCOclfDHJGfPfXY-267" source="VsVcQcCOclfDHJGfPfXY-221" target="VsVcQcCOclfDHJGfPfXY-225">
          <mxGeometry relative="1" as="geometry">
            <Array as="points">
              <mxPoint x="830" y="207" />
            </Array>
          </mxGeometry>
        </mxCell>
        <mxCell id="VsVcQcCOclfDHJGfPfXY-248" value="inherets from" style="curved=1;startArrow=none;endArrow=block;exitX=0.58;exitY=0;entryX=0;entryY=0.5;rounded=0;" edge="1" parent="VsVcQcCOclfDHJGfPfXY-267" source="VsVcQcCOclfDHJGfPfXY-226" target="VsVcQcCOclfDHJGfPfXY-227">
          <mxGeometry relative="1" as="geometry">
            <Array as="points">
              <mxPoint x="1194" y="364" />
            </Array>
          </mxGeometry>
        </mxCell>
        <mxCell id="VsVcQcCOclfDHJGfPfXY-249" value="inherets from" style="curved=1;startArrow=none;endArrow=block;exitX=0.56;exitY=0;entryX=0;entryY=0.82;rounded=0;" edge="1" parent="VsVcQcCOclfDHJGfPfXY-267" source="VsVcQcCOclfDHJGfPfXY-220" target="VsVcQcCOclfDHJGfPfXY-226">
          <mxGeometry relative="1" as="geometry">
            <Array as="points">
              <mxPoint x="531" y="650" />
              <mxPoint x="985" y="650" />
            </Array>
          </mxGeometry>
        </mxCell>
        <mxCell id="VsVcQcCOclfDHJGfPfXY-250" value="inherets from" style="curved=1;startArrow=none;endArrow=block;exitX=0.55;exitY=0;entryX=0;entryY=0.72;rounded=0;" edge="1" parent="VsVcQcCOclfDHJGfPfXY-267" source="VsVcQcCOclfDHJGfPfXY-220" target="VsVcQcCOclfDHJGfPfXY-228">
          <mxGeometry relative="1" as="geometry">
            <Array as="points">
              <mxPoint x="531" y="526" />
              <mxPoint x="985" y="526" />
            </Array>
          </mxGeometry>
        </mxCell>
        <mxCell id="VsVcQcCOclfDHJGfPfXY-251" value="inherets from" style="curved=1;startArrow=none;endArrow=block;exitX=0.56;exitY=0.01;entryX=0;entryY=0.38;rounded=0;" edge="1" parent="VsVcQcCOclfDHJGfPfXY-267" source="VsVcQcCOclfDHJGfPfXY-221" target="VsVcQcCOclfDHJGfPfXY-226">
          <mxGeometry relative="1" as="geometry">
            <Array as="points">
              <mxPoint x="830" y="613" />
              <mxPoint x="985" y="613" />
            </Array>
          </mxGeometry>
        </mxCell>
        <mxCell id="VsVcQcCOclfDHJGfPfXY-252" value="inherets from" style="curved=1;startArrow=none;endArrow=block;exitX=0.54;exitY=0.01;entryX=0;entryY=0.51;rounded=0;" edge="1" parent="VsVcQcCOclfDHJGfPfXY-267" source="VsVcQcCOclfDHJGfPfXY-221" target="VsVcQcCOclfDHJGfPfXY-228">
          <mxGeometry relative="1" as="geometry">
            <Array as="points">
              <mxPoint x="830" y="489" />
              <mxPoint x="985" y="489" />
            </Array>
          </mxGeometry>
        </mxCell>
        <mxCell id="VsVcQcCOclfDHJGfPfXY-253" value="inherets from" style="curved=1;startArrow=none;endArrow=block;exitX=0.59;exitY=0.01;entryX=0.06;entryY=0;rounded=0;" edge="1" parent="VsVcQcCOclfDHJGfPfXY-267" source="VsVcQcCOclfDHJGfPfXY-219" target="VsVcQcCOclfDHJGfPfXY-226">
          <mxGeometry relative="1" as="geometry">
            <Array as="points">
              <mxPoint x="197" y="576" />
              <mxPoint x="985" y="576" />
            </Array>
          </mxGeometry>
        </mxCell>
        <mxCell id="VsVcQcCOclfDHJGfPfXY-254" value="inherets from" style="curved=1;startArrow=none;endArrow=block;exitX=0.57;exitY=0.01;entryX=0;entryY=0.34;rounded=0;" edge="1" parent="VsVcQcCOclfDHJGfPfXY-267" source="VsVcQcCOclfDHJGfPfXY-219" target="VsVcQcCOclfDHJGfPfXY-228">
          <mxGeometry relative="1" as="geometry">
            <Array as="points">
              <mxPoint x="197" y="457" />
              <mxPoint x="985" y="457" />
            </Array>
          </mxGeometry>
        </mxCell>
        <mxCell id="VsVcQcCOclfDHJGfPfXY-255" value="inherets from" style="curved=1;startArrow=none;endArrow=block;exitX=0.66;exitY=1;entryX=0;entryY=0.51;rounded=0;" edge="1" parent="VsVcQcCOclfDHJGfPfXY-267" source="VsVcQcCOclfDHJGfPfXY-226" target="VsVcQcCOclfDHJGfPfXY-229">
          <mxGeometry relative="1" as="geometry">
            <Array as="points">
              <mxPoint x="1194" y="758" />
            </Array>
          </mxGeometry>
        </mxCell>
        <mxCell id="VsVcQcCOclfDHJGfPfXY-256" value="uses" style="curved=1;startArrow=none;endArrow=block;exitX=1;exitY=0.51;entryX=0.29;entryY=1;rounded=0;" edge="1" parent="VsVcQcCOclfDHJGfPfXY-267" source="VsVcQcCOclfDHJGfPfXY-229" target="VsVcQcCOclfDHJGfPfXY-230">
          <mxGeometry relative="1" as="geometry">
            <Array as="points">
              <mxPoint x="1541" y="758" />
            </Array>
          </mxGeometry>
        </mxCell>
        <mxCell id="VsVcQcCOclfDHJGfPfXY-257" value="uses" style="curved=1;startArrow=none;endArrow=block;exitX=0.57;exitY=0;entryX=0.12;entryY=1;rounded=0;" edge="1" parent="VsVcQcCOclfDHJGfPfXY-267" source="VsVcQcCOclfDHJGfPfXY-220" target="VsVcQcCOclfDHJGfPfXY-230">
          <mxGeometry relative="1" as="geometry">
            <Array as="points">
              <mxPoint x="531" y="696" />
              <mxPoint x="1541" y="696" />
            </Array>
          </mxGeometry>
        </mxCell>
        <mxCell id="VsVcQcCOclfDHJGfPfXY-258" value="uses" style="curved=1;startArrow=none;endArrow=block;exitX=0.55;exitY=0.01;entryX=0.07;entryY=0;rounded=0;" edge="1" parent="VsVcQcCOclfDHJGfPfXY-267" source="VsVcQcCOclfDHJGfPfXY-221" target="VsVcQcCOclfDHJGfPfXY-230">
          <mxGeometry relative="1" as="geometry">
            <Array as="points">
              <mxPoint x="830" y="551" />
              <mxPoint x="1541" y="551" />
            </Array>
          </mxGeometry>
        </mxCell>
        <mxCell id="VsVcQcCOclfDHJGfPfXY-259" value="uses" style="curved=1;startArrow=none;endArrow=block;exitX=0.56;exitY=0.01;entryX=0.35;entryY=0;rounded=0;" edge="1" parent="VsVcQcCOclfDHJGfPfXY-267" source="VsVcQcCOclfDHJGfPfXY-219" target="VsVcQcCOclfDHJGfPfXY-230">
          <mxGeometry relative="1" as="geometry">
            <Array as="points">
              <mxPoint x="197" y="426" />
              <mxPoint x="1541" y="426" />
            </Array>
          </mxGeometry>
        </mxCell>
        <mxCell id="VsVcQcCOclfDHJGfPfXY-260" value="" style="curved=1;startArrow=none;endArrow=block;exitX=0.63;exitY=1.01;entryX=0.03;entryY=1;rounded=0;" edge="1" parent="VsVcQcCOclfDHJGfPfXY-267" source="VsVcQcCOclfDHJGfPfXY-219" target="VsVcQcCOclfDHJGfPfXY-231">
          <mxGeometry relative="1" as="geometry">
            <Array as="points">
              <mxPoint x="197" y="1210" />
              <mxPoint x="985" y="1210" />
            </Array>
          </mxGeometry>
        </mxCell>
        <mxCell id="VsVcQcCOclfDHJGfPfXY-261" value="" style="curved=1;startArrow=none;endArrow=block;exitX=0.56;exitY=1.01;entryX=0;entryY=0.24;rounded=0;" edge="1" parent="VsVcQcCOclfDHJGfPfXY-267" source="VsVcQcCOclfDHJGfPfXY-221" target="VsVcQcCOclfDHJGfPfXY-231">
          <mxGeometry relative="1" as="geometry">
            <Array as="points">
              <mxPoint x="830" y="1147" />
              <mxPoint x="985" y="1147" />
            </Array>
          </mxGeometry>
        </mxCell>
        <mxCell id="VsVcQcCOclfDHJGfPfXY-262" value="" style="curved=1;startArrow=none;endArrow=block;exitX=0.59;exitY=1;entryX=0;entryY=0.93;rounded=0;" edge="1" parent="VsVcQcCOclfDHJGfPfXY-267" source="VsVcQcCOclfDHJGfPfXY-220" target="VsVcQcCOclfDHJGfPfXY-232">
          <mxGeometry relative="1" as="geometry">
            <Array as="points">
              <mxPoint x="531" y="1304" />
              <mxPoint x="985" y="1304" />
            </Array>
          </mxGeometry>
        </mxCell>
        <mxCell id="VsVcQcCOclfDHJGfPfXY-263" value="" style="curved=1;startArrow=none;endArrow=block;exitX=0.62;exitY=1.01;entryX=0.05;entryY=0;rounded=0;" edge="1" parent="VsVcQcCOclfDHJGfPfXY-267" source="VsVcQcCOclfDHJGfPfXY-219" target="VsVcQcCOclfDHJGfPfXY-232">
          <mxGeometry relative="1" as="geometry">
            <Array as="points">
              <mxPoint x="197" y="1230" />
              <mxPoint x="985" y="1230" />
            </Array>
          </mxGeometry>
        </mxCell>
        <mxCell id="VsVcQcCOclfDHJGfPfXY-264" value="" style="curved=1;startArrow=none;endArrow=block;exitX=0.53;exitY=1.01;entryX=0;entryY=0.57;rounded=0;" edge="1" parent="VsVcQcCOclfDHJGfPfXY-267" source="VsVcQcCOclfDHJGfPfXY-221" target="VsVcQcCOclfDHJGfPfXY-233">
          <mxGeometry relative="1" as="geometry">
            <Array as="points">
              <mxPoint x="830" y="1386" />
              <mxPoint x="985" y="1386" />
            </Array>
          </mxGeometry>
        </mxCell>
        <mxCell id="VsVcQcCOclfDHJGfPfXY-265" value="" style="curved=1;startArrow=none;endArrow=block;exitX=0.57;exitY=1;entryX=0;entryY=0.43;rounded=0;" edge="1" parent="VsVcQcCOclfDHJGfPfXY-267" source="VsVcQcCOclfDHJGfPfXY-220" target="VsVcQcCOclfDHJGfPfXY-233">
          <mxGeometry relative="1" as="geometry">
            <Array as="points">
              <mxPoint x="531" y="1366" />
              <mxPoint x="985" y="1366" />
            </Array>
          </mxGeometry>
        </mxCell>
        <mxCell id="VsVcQcCOclfDHJGfPfXY-266" value="" style="curved=1;startArrow=none;endArrow=block;exitX=0.59;exitY=1.01;entryX=0;entryY=0.14;rounded=0;" edge="1" parent="VsVcQcCOclfDHJGfPfXY-267" source="VsVcQcCOclfDHJGfPfXY-219" target="VsVcQcCOclfDHJGfPfXY-233">
          <mxGeometry relative="1" as="geometry">
            <Array as="points">
              <mxPoint x="197" y="1324" />
              <mxPoint x="985" y="1324" />
            </Array>
          </mxGeometry>
        </mxCell>
        <mxCell id="VsVcQcCOclfDHJGfPfXY-268" value="Registry (Central hub for managing identities, Hermes contracts, and channels.)" style="swimlane;fontStyle=1;align=center;verticalAlign=top;childLayout=stackLayout;horizontal=1;startSize=26.666666666666668;horizontalStack=0;resizeParent=1;resizeParentMax=0;resizeLast=0;collapsible=0;marginBottom=0;" vertex="1" parent="VsVcQcCOclfDHJGfPfXY-202">
          <mxGeometry x="120" y="6061" width="1547" height="574.6666666666667" as="geometry" />
        </mxCell>
        <mxCell id="VsVcQcCOclfDHJGfPfXY-269" value="-address payable dex" style="text;strokeColor=none;fillColor=none;align=left;verticalAlign=top;spacingLeft=4;spacingRight=4;overflow=hidden;rotatable=0;points=[[0,0.5],[1,0.5]];portConstraint=eastwest;" vertex="1" parent="VsVcQcCOclfDHJGfPfXY-268">
          <mxGeometry y="26.666666666666668" width="1547" height="27" as="geometry" />
        </mxCell>
        <mxCell id="VsVcQcCOclfDHJGfPfXY-270" value="-uint256 minimalHermesStake" style="text;strokeColor=none;fillColor=none;align=left;verticalAlign=top;spacingLeft=4;spacingRight=4;overflow=hidden;rotatable=0;points=[[0,0.5],[1,0.5]];portConstraint=eastwest;" vertex="1" parent="VsVcQcCOclfDHJGfPfXY-268">
          <mxGeometry y="53.66666666666667" width="1547" height="27" as="geometry" />
        </mxCell>
        <mxCell id="VsVcQcCOclfDHJGfPfXY-271" value="-Registry parentRegistry" style="text;strokeColor=none;fillColor=none;align=left;verticalAlign=top;spacingLeft=4;spacingRight=4;overflow=hidden;rotatable=0;points=[[0,0.5],[1,0.5]];portConstraint=eastwest;" vertex="1" parent="VsVcQcCOclfDHJGfPfXY-268">
          <mxGeometry y="80.66666666666667" width="1547" height="27" as="geometry" />
        </mxCell>
        <mxCell id="VsVcQcCOclfDHJGfPfXY-272" value="-Implementation[] implementations" style="text;strokeColor=none;fillColor=none;align=left;verticalAlign=top;spacingLeft=4;spacingRight=4;overflow=hidden;rotatable=0;points=[[0,0.5],[1,0.5]];portConstraint=eastwest;" vertex="1" parent="VsVcQcCOclfDHJGfPfXY-268">
          <mxGeometry y="107.66666666666667" width="1547" height="27" as="geometry" />
        </mxCell>
        <mxCell id="VsVcQcCOclfDHJGfPfXY-276" style="line;strokeWidth=1;fillColor=none;align=left;verticalAlign=middle;spacingTop=-1;spacingLeft=3;spacingRight=3;rotatable=0;labelPosition=right;points=[];portConstraint=eastwest;strokeColor=inherit;" vertex="1" parent="VsVcQcCOclfDHJGfPfXY-268">
          <mxGeometry y="134.66666666666669" width="1547" height="8" as="geometry" />
        </mxCell>
        <mxCell id="VsVcQcCOclfDHJGfPfXY-277" value="-mapping(address =&gt; Hermes) : hermeses" style="text;strokeColor=none;fillColor=none;align=left;verticalAlign=top;spacingLeft=4;spacingRight=4;overflow=hidden;rotatable=0;points=[[0,0.5],[1,0.5]];portConstraint=eastwest;" vertex="1" parent="VsVcQcCOclfDHJGfPfXY-268">
          <mxGeometry y="142.66666666666669" width="1547" height="27" as="geometry" />
        </mxCell>
        <mxCell id="VsVcQcCOclfDHJGfPfXY-278" value="-mapping(address =&gt; address) : identities" style="text;strokeColor=none;fillColor=none;align=left;verticalAlign=top;spacingLeft=4;spacingRight=4;overflow=hidden;rotatable=0;points=[[0,0.5],[1,0.5]];portConstraint=eastwest;" vertex="1" parent="VsVcQcCOclfDHJGfPfXY-268">
          <mxGeometry y="169.66666666666669" width="1547" height="27" as="geometry" />
        </mxCell>
        <mxCell id="VsVcQcCOclfDHJGfPfXY-279" value="+event RegisteredIdentity(address indexed identity, address beneficiary)" style="text;strokeColor=none;fillColor=none;align=left;verticalAlign=top;spacingLeft=4;spacingRight=4;overflow=hidden;rotatable=0;points=[[0,0.5],[1,0.5]];portConstraint=eastwest;" vertex="1" parent="VsVcQcCOclfDHJGfPfXY-268">
          <mxGeometry y="196.66666666666669" width="1547" height="27" as="geometry" />
        </mxCell>
        <mxCell id="VsVcQcCOclfDHJGfPfXY-280" value="+event RegisteredHermes(address indexed hermesId, address hermesOperator, bytes ur)" style="text;strokeColor=none;fillColor=none;align=left;verticalAlign=top;spacingLeft=4;spacingRight=4;overflow=hidden;rotatable=0;points=[[0,0.5],[1,0.5]];portConstraint=eastwest;" vertex="1" parent="VsVcQcCOclfDHJGfPfXY-268">
          <mxGeometry y="223.66666666666669" width="1547" height="27" as="geometry" />
        </mxCell>
        <mxCell id="VsVcQcCOclfDHJGfPfXY-281" value="+function initialize(address _tokenAddress, address payable _dexAddress, uint256 _minimalHermesStake, address _channelImplementation, address _hermesImplementation, address payable _parentRegistry)" style="text;strokeColor=none;fillColor=none;align=left;verticalAlign=top;spacingLeft=4;spacingRight=4;overflow=hidden;rotatable=0;points=[[0,0.5],[1,0.5]];portConstraint=eastwest;" vertex="1" parent="VsVcQcCOclfDHJGfPfXY-268">
          <mxGeometry y="250.66666666666669" width="1547" height="27" as="geometry" />
        </mxCell>
        <mxCell id="VsVcQcCOclfDHJGfPfXY-282" value="+function registerIdentity(address _hermesId, uint256 _stakeAmount, uint256 _transactorFee, address _beneficiary, bytes memory _signature)" style="text;strokeColor=none;fillColor=none;align=left;verticalAlign=top;spacingLeft=4;spacingRight=4;overflow=hidden;rotatable=0;points=[[0,0.5],[1,0.5]];portConstraint=eastwest;" vertex="1" parent="VsVcQcCOclfDHJGfPfXY-268">
          <mxGeometry y="277.6666666666667" width="1547" height="27" as="geometry" />
        </mxCell>
        <mxCell id="VsVcQcCOclfDHJGfPfXY-283" value="+function openConsumerChannel(address _hermesId, uint256 _transactorFee, bytes memory _signature)" style="text;strokeColor=none;fillColor=none;align=left;verticalAlign=top;spacingLeft=4;spacingRight=4;overflow=hidden;rotatable=0;points=[[0,0.5],[1,0.5]];portConstraint=eastwest;" vertex="1" parent="VsVcQcCOclfDHJGfPfXY-268">
          <mxGeometry y="304.6666666666667" width="1547" height="27" as="geometry" />
        </mxCell>
        <mxCell id="VsVcQcCOclfDHJGfPfXY-284" value="+function registerHermes(address _hermesOperator, uint256 _hermesStake, uint16 _hermesFee, uint256 _minChannelStake, uint256 _maxChannelStake, bytes memory _url)" style="text;strokeColor=none;fillColor=none;align=left;verticalAlign=top;spacingLeft=4;spacingRight=4;overflow=hidden;rotatable=0;points=[[0,0.5],[1,0.5]];portConstraint=eastwest;" vertex="1" parent="VsVcQcCOclfDHJGfPfXY-268">
          <mxGeometry y="331.6666666666667" width="1547" height="27" as="geometry" />
        </mxCell>
        <mxCell id="VsVcQcCOclfDHJGfPfXY-285" value="+function getChannelAddress(address _identity, address _hermesId)" style="text;strokeColor=none;fillColor=none;align=left;verticalAlign=top;spacingLeft=4;spacingRight=4;overflow=hidden;rotatable=0;points=[[0,0.5],[1,0.5]];portConstraint=eastwest;" vertex="1" parent="VsVcQcCOclfDHJGfPfXY-268">
          <mxGeometry y="358.6666666666667" width="1547" height="27" as="geometry" />
        </mxCell>
        <mxCell id="VsVcQcCOclfDHJGfPfXY-286" value="+function getHermes(address _hermesId)" style="text;strokeColor=none;fillColor=none;align=left;verticalAlign=top;spacingLeft=4;spacingRight=4;overflow=hidden;rotatable=0;points=[[0,0.5],[1,0.5]];portConstraint=eastwest;" vertex="1" parent="VsVcQcCOclfDHJGfPfXY-268">
          <mxGeometry y="385.6666666666667" width="1547" height="27" as="geometry" />
        </mxCell>
        <mxCell id="VsVcQcCOclfDHJGfPfXY-287" value="+function setBeneficiary(address _identity, address _newBeneficiary, bytes memory _signature)" style="text;strokeColor=none;fillColor=none;align=left;verticalAlign=top;spacingLeft=4;spacingRight=4;overflow=hidden;rotatable=0;points=[[0,0.5],[1,0.5]];portConstraint=eastwest;" vertex="1" parent="VsVcQcCOclfDHJGfPfXY-268">
          <mxGeometry y="412.6666666666667" width="1547" height="27" as="geometry" />
        </mxCell>
        <mxCell id="VsVcQcCOclfDHJGfPfXY-288" value="+function setMinimalHermesStake(uint256 _newMinimalStake)" style="text;strokeColor=none;fillColor=none;align=left;verticalAlign=top;spacingLeft=4;spacingRight=4;overflow=hidden;rotatable=0;points=[[0,0.5],[1,0.5]];portConstraint=eastwest;" vertex="1" parent="VsVcQcCOclfDHJGfPfXY-268">
          <mxGeometry y="439.6666666666667" width="1547" height="27" as="geometry" />
        </mxCell>
        <mxCell id="VsVcQcCOclfDHJGfPfXY-289" value="+function setImplementations(address _newChannelImplAddress, address _newHermesImplAddress)" style="text;strokeColor=none;fillColor=none;align=left;verticalAlign=top;spacingLeft=4;spacingRight=4;overflow=hidden;rotatable=0;points=[[0,0.5],[1,0.5]];portConstraint=eastwest;" vertex="1" parent="VsVcQcCOclfDHJGfPfXY-268">
          <mxGeometry y="466.6666666666667" width="1547" height="27" as="geometry" />
        </mxCell>
        <mxCell id="VsVcQcCOclfDHJGfPfXY-290" value="+function isRegistered(address _identity)" style="text;strokeColor=none;fillColor=none;align=left;verticalAlign=top;spacingLeft=4;spacingRight=4;overflow=hidden;rotatable=0;points=[[0,0.5],[1,0.5]];portConstraint=eastwest;" vertex="1" parent="VsVcQcCOclfDHJGfPfXY-268">
          <mxGeometry y="493.6666666666667" width="1547" height="27" as="geometry" />
        </mxCell>
        <mxCell id="VsVcQcCOclfDHJGfPfXY-291" value="+function isHermes(address _hermesId)" style="text;strokeColor=none;fillColor=none;align=left;verticalAlign=top;spacingLeft=4;spacingRight=4;overflow=hidden;rotatable=0;points=[[0,0.5],[1,0.5]];portConstraint=eastwest;" vertex="1" parent="VsVcQcCOclfDHJGfPfXY-268">
          <mxGeometry y="520.6666666666667" width="1547" height="27" as="geometry" />
        </mxCell>
        <mxCell id="VsVcQcCOclfDHJGfPfXY-292" value="+function isActiveHermes(address _hermesId)" style="text;strokeColor=none;fillColor=none;align=left;verticalAlign=top;spacingLeft=4;spacingRight=4;overflow=hidden;rotatable=0;points=[[0,0.5],[1,0.5]];portConstraint=eastwest;" vertex="1" parent="VsVcQcCOclfDHJGfPfXY-268">
          <mxGeometry y="547.6666666666667" width="1547" height="27" as="geometry" />
        </mxCell>
        <mxCell id="VsVcQcCOclfDHJGfPfXY-293" value="ChannelImplementation(Implements payment channel logic.)" style="swimlane;fontStyle=1;align=center;verticalAlign=top;childLayout=stackLayout;horizontal=1;startSize=27.764705882352942;horizontalStack=0;resizeParent=1;resizeParentMax=0;resizeLast=0;collapsible=0;marginBottom=0;" vertex="1" parent="VsVcQcCOclfDHJGfPfXY-202">
          <mxGeometry x="1638" y="7492" width="1353" height="399.7647058823529" as="geometry" />
        </mxCell>
        <mxCell id="VsVcQcCOclfDHJGfPfXY-294" value="-string EXIT_PREFIX" style="text;strokeColor=none;fillColor=none;align=left;verticalAlign=top;spacingLeft=4;spacingRight=4;overflow=hidden;rotatable=0;points=[[0,0.5],[1,0.5]];portConstraint=eastwest;" vertex="1" parent="VsVcQcCOclfDHJGfPfXY-293">
          <mxGeometry y="27.764705882352942" width="1353" height="28" as="geometry" />
        </mxCell>
        <mxCell id="VsVcQcCOclfDHJGfPfXY-295" value="-uint256 lastNonce" style="text;strokeColor=none;fillColor=none;align=left;verticalAlign=top;spacingLeft=4;spacingRight=4;overflow=hidden;rotatable=0;points=[[0,0.5],[1,0.5]];portConstraint=eastwest;" vertex="1" parent="VsVcQcCOclfDHJGfPfXY-293">
          <mxGeometry y="55.76470588235294" width="1353" height="28" as="geometry" />
        </mxCell>
        <mxCell id="VsVcQcCOclfDHJGfPfXY-296" value="-ExitRequest exitRequest" style="text;strokeColor=none;fillColor=none;align=left;verticalAlign=top;spacingLeft=4;spacingRight=4;overflow=hidden;rotatable=0;points=[[0,0.5],[1,0.5]];portConstraint=eastwest;" vertex="1" parent="VsVcQcCOclfDHJGfPfXY-293">
          <mxGeometry y="83.76470588235294" width="1353" height="28" as="geometry" />
        </mxCell>
        <mxCell id="VsVcQcCOclfDHJGfPfXY-297" value="-Hermes hermes" style="text;strokeColor=none;fillColor=none;align=left;verticalAlign=top;spacingLeft=4;spacingRight=4;overflow=hidden;rotatable=0;points=[[0,0.5],[1,0.5]];portConstraint=eastwest;" vertex="1" parent="VsVcQcCOclfDHJGfPfXY-293">
          <mxGeometry y="111.76470588235294" width="1353" height="28" as="geometry" />
        </mxCell>
        <mxCell id="VsVcQcCOclfDHJGfPfXY-298" value="-address operator" style="text;strokeColor=none;fillColor=none;align=left;verticalAlign=top;spacingLeft=4;spacingRight=4;overflow=hidden;rotatable=0;points=[[0,0.5],[1,0.5]];portConstraint=eastwest;" vertex="1" parent="VsVcQcCOclfDHJGfPfXY-293">
          <mxGeometry y="139.76470588235293" width="1353" height="28" as="geometry" />
        </mxCell>
        <mxCell id="VsVcQcCOclfDHJGfPfXY-299" value="-IUniswapV2Router dex" style="text;strokeColor=none;fillColor=none;align=left;verticalAlign=top;spacingLeft=4;spacingRight=4;overflow=hidden;rotatable=0;points=[[0,0.5],[1,0.5]];portConstraint=eastwest;" vertex="1" parent="VsVcQcCOclfDHJGfPfXY-293">
          <mxGeometry y="167.76470588235293" width="1353" height="28" as="geometry" />
        </mxCell>
        <mxCell id="VsVcQcCOclfDHJGfPfXY-303" style="line;strokeWidth=1;fillColor=none;align=left;verticalAlign=middle;spacingTop=-1;spacingLeft=3;spacingRight=3;rotatable=0;labelPosition=right;points=[];portConstraint=eastwest;strokeColor=inherit;" vertex="1" parent="VsVcQcCOclfDHJGfPfXY-293">
          <mxGeometry y="195.76470588235293" width="1353" height="8" as="geometry" />
        </mxCell>
        <mxCell id="VsVcQcCOclfDHJGfPfXY-304" value="+event PromiseSettled(address beneficiary, uint256 amount, uint256 totalSettled, bytes32 lock)" style="text;strokeColor=none;fillColor=none;align=left;verticalAlign=top;spacingLeft=4;spacingRight=4;overflow=hidden;rotatable=0;points=[[0,0.5],[1,0.5]];portConstraint=eastwest;" vertex="1" parent="VsVcQcCOclfDHJGfPfXY-293">
          <mxGeometry y="203.76470588235293" width="1353" height="28" as="geometry" />
        </mxCell>
        <mxCell id="VsVcQcCOclfDHJGfPfXY-305" value="+event ExitRequested(uint256 timelock)" style="text;strokeColor=none;fillColor=none;align=left;verticalAlign=top;spacingLeft=4;spacingRight=4;overflow=hidden;rotatable=0;points=[[0,0.5],[1,0.5]];portConstraint=eastwest;" vertex="1" parent="VsVcQcCOclfDHJGfPfXY-293">
          <mxGeometry y="231.76470588235293" width="1353" height="28" as="geometry" />
        </mxCell>
        <mxCell id="VsVcQcCOclfDHJGfPfXY-306" value="+event Withdraw(address beneficiary, uint256 amount)" style="text;strokeColor=none;fillColor=none;align=left;verticalAlign=top;spacingLeft=4;spacingRight=4;overflow=hidden;rotatable=0;points=[[0,0.5],[1,0.5]];portConstraint=eastwest;" vertex="1" parent="VsVcQcCOclfDHJGfPfXY-293">
          <mxGeometry y="259.7647058823529" width="1353" height="28" as="geometry" />
        </mxCell>
        <mxCell id="VsVcQcCOclfDHJGfPfXY-307" value="+function initialize(address _token, address _dexAddress, address _identity, address _hermesId, uint256 _fee)" style="text;strokeColor=none;fillColor=none;align=left;verticalAlign=top;spacingLeft=4;spacingRight=4;overflow=hidden;rotatable=0;points=[[0,0.5],[1,0.5]];portConstraint=eastwest;" vertex="1" parent="VsVcQcCOclfDHJGfPfXY-293">
          <mxGeometry y="287.7647058823529" width="1353" height="28" as="geometry" />
        </mxCell>
        <mxCell id="VsVcQcCOclfDHJGfPfXY-308" value="+function settlePromise(uint256 _amount, uint256 _transactorFee, bytes32 _lock, bytes memory _signature)" style="text;strokeColor=none;fillColor=none;align=left;verticalAlign=top;spacingLeft=4;spacingRight=4;overflow=hidden;rotatable=0;points=[[0,0.5],[1,0.5]];portConstraint=eastwest;" vertex="1" parent="VsVcQcCOclfDHJGfPfXY-293">
          <mxGeometry y="315.7647058823529" width="1353" height="28" as="geometry" />
        </mxCell>
        <mxCell id="VsVcQcCOclfDHJGfPfXY-309" value="+function fastExit(uint256 _amount, uint256 _transactorFee, address _beneficiary, uint256 _validUntil, bytes memory _operatorSignature, bytes memory _hermesSignature)" style="text;strokeColor=none;fillColor=none;align=left;verticalAlign=top;spacingLeft=4;spacingRight=4;overflow=hidden;rotatable=0;points=[[0,0.5],[1,0.5]];portConstraint=eastwest;" vertex="1" parent="VsVcQcCOclfDHJGfPfXY-293">
          <mxGeometry y="343.7647058823529" width="1353" height="28" as="geometry" />
        </mxCell>
        <mxCell id="VsVcQcCOclfDHJGfPfXY-310" value="+function setFundsDestinationByCheque(address payable _newDestination, bytes memory _signature)" style="text;strokeColor=none;fillColor=none;align=left;verticalAlign=top;spacingLeft=4;spacingRight=4;overflow=hidden;rotatable=0;points=[[0,0.5],[1,0.5]];portConstraint=eastwest;" vertex="1" parent="VsVcQcCOclfDHJGfPfXY-293">
          <mxGeometry y="371.7647058823529" width="1353" height="28" as="geometry" />
        </mxCell>
        <mxCell id="VsVcQcCOclfDHJGfPfXY-311" value="HermesImplementation(Provides channel balance and manages stake.)" style="swimlane;fontStyle=1;align=center;verticalAlign=top;childLayout=stackLayout;horizontal=1;startSize=26.133333333333333;horizontalStack=0;resizeParent=1;resizeParentMax=0;resizeLast=0;collapsible=0;marginBottom=0;" vertex="1" parent="VsVcQcCOclfDHJGfPfXY-202">
          <mxGeometry x="3626" y="7336" width="1318" height="710.1333333333333" as="geometry" />
        </mxCell>
        <mxCell id="VsVcQcCOclfDHJGfPfXY-312" value="-string STAKE_RETURN_PREFIX" style="text;strokeColor=none;fillColor=none;align=left;verticalAlign=top;spacingLeft=4;spacingRight=4;overflow=hidden;rotatable=0;points=[[0,0.5],[1,0.5]];portConstraint=eastwest;" vertex="1" parent="VsVcQcCOclfDHJGfPfXY-311">
          <mxGeometry y="26.133333333333333" width="1318" height="26" as="geometry" />
        </mxCell>
        <mxCell id="VsVcQcCOclfDHJGfPfXY-313" value="-uint256 DELAY_SECONDS" style="text;strokeColor=none;fillColor=none;align=left;verticalAlign=top;spacingLeft=4;spacingRight=4;overflow=hidden;rotatable=0;points=[[0,0.5],[1,0.5]];portConstraint=eastwest;" vertex="1" parent="VsVcQcCOclfDHJGfPfXY-311">
          <mxGeometry y="52.13333333333333" width="1318" height="26" as="geometry" />
        </mxCell>
        <mxCell id="VsVcQcCOclfDHJGfPfXY-314" value="-uint256 UNIT_SECONDS" style="text;strokeColor=none;fillColor=none;align=left;verticalAlign=top;spacingLeft=4;spacingRight=4;overflow=hidden;rotatable=0;points=[[0,0.5],[1,0.5]];portConstraint=eastwest;" vertex="1" parent="VsVcQcCOclfDHJGfPfXY-311">
          <mxGeometry y="78.13333333333333" width="1318" height="26" as="geometry" />
        </mxCell>
        <mxCell id="VsVcQcCOclfDHJGfPfXY-315" value="-uint16 PUNISHMENT_PERCENT" style="text;strokeColor=none;fillColor=none;align=left;verticalAlign=top;spacingLeft=4;spacingRight=4;overflow=hidden;rotatable=0;points=[[0,0.5],[1,0.5]];portConstraint=eastwest;" vertex="1" parent="VsVcQcCOclfDHJGfPfXY-311">
          <mxGeometry y="104.13333333333333" width="1318" height="26" as="geometry" />
        </mxCell>
        <mxCell id="VsVcQcCOclfDHJGfPfXY-316" value="-IdentityRegistry registry" style="text;strokeColor=none;fillColor=none;align=left;verticalAlign=top;spacingLeft=4;spacingRight=4;overflow=hidden;rotatable=0;points=[[0,0.5],[1,0.5]];portConstraint=eastwest;" vertex="1" parent="VsVcQcCOclfDHJGfPfXY-311">
          <mxGeometry y="130.13333333333333" width="1318" height="26" as="geometry" />
        </mxCell>
        <mxCell id="VsVcQcCOclfDHJGfPfXY-317" value="-address operator" style="text;strokeColor=none;fillColor=none;align=left;verticalAlign=top;spacingLeft=4;spacingRight=4;overflow=hidden;rotatable=0;points=[[0,0.5],[1,0.5]];portConstraint=eastwest;" vertex="1" parent="VsVcQcCOclfDHJGfPfXY-311">
          <mxGeometry y="156.13333333333333" width="1318" height="26" as="geometry" />
        </mxCell>
        <mxCell id="VsVcQcCOclfDHJGfPfXY-318" value="-uint256 totalStake" style="text;strokeColor=none;fillColor=none;align=left;verticalAlign=top;spacingLeft=4;spacingRight=4;overflow=hidden;rotatable=0;points=[[0,0.5],[1,0.5]];portConstraint=eastwest;" vertex="1" parent="VsVcQcCOclfDHJGfPfXY-311">
          <mxGeometry y="182.13333333333333" width="1318" height="26" as="geometry" />
        </mxCell>
        <mxCell id="VsVcQcCOclfDHJGfPfXY-319" value="-uint256 minStake" style="text;strokeColor=none;fillColor=none;align=left;verticalAlign=top;spacingLeft=4;spacingRight=4;overflow=hidden;rotatable=0;points=[[0,0.5],[1,0.5]];portConstraint=eastwest;" vertex="1" parent="VsVcQcCOclfDHJGfPfXY-311">
          <mxGeometry y="208.13333333333333" width="1318" height="26" as="geometry" />
        </mxCell>
        <mxCell id="VsVcQcCOclfDHJGfPfXY-320" value="-uint256 maxStake" style="text;strokeColor=none;fillColor=none;align=left;verticalAlign=top;spacingLeft=4;spacingRight=4;overflow=hidden;rotatable=0;points=[[0,0.5],[1,0.5]];portConstraint=eastwest;" vertex="1" parent="VsVcQcCOclfDHJGfPfXY-311">
          <mxGeometry y="234.13333333333333" width="1318" height="26" as="geometry" />
        </mxCell>
        <mxCell id="VsVcQcCOclfDHJGfPfXY-321" value="-uint256 hermesStake" style="text;strokeColor=none;fillColor=none;align=left;verticalAlign=top;spacingLeft=4;spacingRight=4;overflow=hidden;rotatable=0;points=[[0,0.5],[1,0.5]];portConstraint=eastwest;" vertex="1" parent="VsVcQcCOclfDHJGfPfXY-311">
          <mxGeometry y="260.1333333333333" width="1318" height="26" as="geometry" />
        </mxCell>
        <mxCell id="VsVcQcCOclfDHJGfPfXY-322" value="-uint256 closingTimelock" style="text;strokeColor=none;fillColor=none;align=left;verticalAlign=top;spacingLeft=4;spacingRight=4;overflow=hidden;rotatable=0;points=[[0,0.5],[1,0.5]];portConstraint=eastwest;" vertex="1" parent="VsVcQcCOclfDHJGfPfXY-311">
          <mxGeometry y="286.1333333333333" width="1318" height="26" as="geometry" />
        </mxCell>
        <mxCell id="VsVcQcCOclfDHJGfPfXY-323" value="-IUniswapV2Router dex" style="text;strokeColor=none;fillColor=none;align=left;verticalAlign=top;spacingLeft=4;spacingRight=4;overflow=hidden;rotatable=0;points=[[0,0.5],[1,0.5]];portConstraint=eastwest;" vertex="1" parent="VsVcQcCOclfDHJGfPfXY-311">
          <mxGeometry y="312.1333333333333" width="1318" height="26" as="geometry" />
        </mxCell>
        <mxCell id="VsVcQcCOclfDHJGfPfXY-324" value="-StatusEnum status" style="text;strokeColor=none;fillColor=none;align=left;verticalAlign=top;spacingLeft=4;spacingRight=4;overflow=hidden;rotatable=0;points=[[0,0.5],[1,0.5]];portConstraint=eastwest;" vertex="1" parent="VsVcQcCOclfDHJGfPfXY-311">
          <mxGeometry y="338.1333333333333" width="1318" height="26" as="geometry" />
        </mxCell>
        <mxCell id="VsVcQcCOclfDHJGfPfXY-325" value="-HermesFee lastFee" style="text;strokeColor=none;fillColor=none;align=left;verticalAlign=top;spacingLeft=4;spacingRight=4;overflow=hidden;rotatable=0;points=[[0,0.5],[1,0.5]];portConstraint=eastwest;" vertex="1" parent="VsVcQcCOclfDHJGfPfXY-311">
          <mxGeometry y="364.1333333333333" width="1318" height="26" as="geometry" />
        </mxCell>
        <mxCell id="VsVcQcCOclfDHJGfPfXY-326" value="-HermesFee previousFee" style="text;strokeColor=none;fillColor=none;align=left;verticalAlign=top;spacingLeft=4;spacingRight=4;overflow=hidden;rotatable=0;points=[[0,0.5],[1,0.5]];portConstraint=eastwest;" vertex="1" parent="VsVcQcCOclfDHJGfPfXY-311">
          <mxGeometry y="390.1333333333333" width="1318" height="26" as="geometry" />
        </mxCell>
        <mxCell id="VsVcQcCOclfDHJGfPfXY-327" value="-Punishment punishment" style="text;strokeColor=none;fillColor=none;align=left;verticalAlign=top;spacingLeft=4;spacingRight=4;overflow=hidden;rotatable=0;points=[[0,0.5],[1,0.5]];portConstraint=eastwest;" vertex="1" parent="VsVcQcCOclfDHJGfPfXY-311">
          <mxGeometry y="416.1333333333333" width="1318" height="26" as="geometry" />
        </mxCell>
        <mxCell id="VsVcQcCOclfDHJGfPfXY-331" style="line;strokeWidth=1;fillColor=none;align=left;verticalAlign=middle;spacingTop=-1;spacingLeft=3;spacingRight=3;rotatable=0;labelPosition=right;points=[];portConstraint=eastwest;strokeColor=inherit;" vertex="1" parent="VsVcQcCOclfDHJGfPfXY-311">
          <mxGeometry y="442.1333333333333" width="1318" height="8" as="geometry" />
        </mxCell>
        <mxCell id="VsVcQcCOclfDHJGfPfXY-332" value="-mapping(bytes32 =&gt; Channel) : channels" style="text;strokeColor=none;fillColor=none;align=left;verticalAlign=top;spacingLeft=4;spacingRight=4;overflow=hidden;rotatable=0;points=[[0,0.5],[1,0.5]];portConstraint=eastwest;" vertex="1" parent="VsVcQcCOclfDHJGfPfXY-311">
          <mxGeometry y="450.1333333333333" width="1318" height="26" as="geometry" />
        </mxCell>
        <mxCell id="VsVcQcCOclfDHJGfPfXY-333" value="+event PromiseSettled(address indexed identity, bytes32 indexed channelId, address indexed beneficiary, uint256 amountSentToBeneficiary, uint256 fees, bytes32 lock)" style="text;strokeColor=none;fillColor=none;align=left;verticalAlign=top;spacingLeft=4;spacingRight=4;overflow=hidden;rotatable=0;points=[[0,0.5],[1,0.5]];portConstraint=eastwest;" vertex="1" parent="VsVcQcCOclfDHJGfPfXY-311">
          <mxGeometry y="476.1333333333333" width="1318" height="26" as="geometry" />
        </mxCell>
        <mxCell id="VsVcQcCOclfDHJGfPfXY-334" value="+event NewStake(bytes32 indexed channelId, uint256 stakeAmount)" style="text;strokeColor=none;fillColor=none;align=left;verticalAlign=top;spacingLeft=4;spacingRight=4;overflow=hidden;rotatable=0;points=[[0,0.5],[1,0.5]];portConstraint=eastwest;" vertex="1" parent="VsVcQcCOclfDHJGfPfXY-311">
          <mxGeometry y="502.1333333333333" width="1318" height="26" as="geometry" />
        </mxCell>
        <mxCell id="VsVcQcCOclfDHJGfPfXY-335" value="+function initialize(address _token, address _operator, uint16 _fee, uint256 _minStake, uint256 _maxStake, address payable _dexAddress)" style="text;strokeColor=none;fillColor=none;align=left;verticalAlign=top;spacingLeft=4;spacingRight=4;overflow=hidden;rotatable=0;points=[[0,0.5],[1,0.5]];portConstraint=eastwest;" vertex="1" parent="VsVcQcCOclfDHJGfPfXY-311">
          <mxGeometry y="528.1333333333333" width="1318" height="26" as="geometry" />
        </mxCell>
        <mxCell id="VsVcQcCOclfDHJGfPfXY-336" value="+function openChannel(address _identity, uint256 _amountToStake)" style="text;strokeColor=none;fillColor=none;align=left;verticalAlign=top;spacingLeft=4;spacingRight=4;overflow=hidden;rotatable=0;points=[[0,0.5],[1,0.5]];portConstraint=eastwest;" vertex="1" parent="VsVcQcCOclfDHJGfPfXY-311">
          <mxGeometry y="554.1333333333333" width="1318" height="26" as="geometry" />
        </mxCell>
        <mxCell id="VsVcQcCOclfDHJGfPfXY-337" value="+function settlePromise(address _identity, uint256 _amount, uint256 _transactorFee, bytes32 _preimage, bytes memory _signature)" style="text;strokeColor=none;fillColor=none;align=left;verticalAlign=top;spacingLeft=4;spacingRight=4;overflow=hidden;rotatable=0;points=[[0,0.5],[1,0.5]];portConstraint=eastwest;" vertex="1" parent="VsVcQcCOclfDHJGfPfXY-311">
          <mxGeometry y="580.1333333333333" width="1318" height="26" as="geometry" />
        </mxCell>
        <mxCell id="VsVcQcCOclfDHJGfPfXY-338" value="+function decreaseStake(address _identity, uint256 _amount, uint256 _transactorFee, bytes memory _signature)" style="text;strokeColor=none;fillColor=none;align=left;verticalAlign=top;spacingLeft=4;spacingRight=4;overflow=hidden;rotatable=0;points=[[0,0.5],[1,0.5]];portConstraint=eastwest;" vertex="1" parent="VsVcQcCOclfDHJGfPfXY-311">
          <mxGeometry y="606.1333333333333" width="1318" height="26" as="geometry" />
        </mxCell>
        <mxCell id="VsVcQcCOclfDHJGfPfXY-339" value="+function setHermesFee(uint16 _newFee)" style="text;strokeColor=none;fillColor=none;align=left;verticalAlign=top;spacingLeft=4;spacingRight=4;overflow=hidden;rotatable=0;points=[[0,0.5],[1,0.5]];portConstraint=eastwest;" vertex="1" parent="VsVcQcCOclfDHJGfPfXY-311">
          <mxGeometry y="632.1333333333333" width="1318" height="26" as="geometry" />
        </mxCell>
        <mxCell id="VsVcQcCOclfDHJGfPfXY-340" value="+function withdraw(address _beneficiary, uint256 _amount)" style="text;strokeColor=none;fillColor=none;align=left;verticalAlign=top;spacingLeft=4;spacingRight=4;overflow=hidden;rotatable=0;points=[[0,0.5],[1,0.5]];portConstraint=eastwest;" vertex="1" parent="VsVcQcCOclfDHJGfPfXY-311">
          <mxGeometry y="658.1333333333333" width="1318" height="26" as="geometry" />
        </mxCell>
        <mxCell id="VsVcQcCOclfDHJGfPfXY-341" value="+function isChannelOpened(bytes32 _channelId)" style="text;strokeColor=none;fillColor=none;align=left;verticalAlign=top;spacingLeft=4;spacingRight=4;overflow=hidden;rotatable=0;points=[[0,0.5],[1,0.5]];portConstraint=eastwest;" vertex="1" parent="VsVcQcCOclfDHJGfPfXY-311">
          <mxGeometry y="684.1333333333333" width="1318" height="26" as="geometry" />
        </mxCell>
        <mxCell id="VsVcQcCOclfDHJGfPfXY-342" value="FundsRecovery" style="swimlane;fontStyle=1;align=center;verticalAlign=top;childLayout=stackLayout;horizontal=1;startSize=34.666666666666664;horizontalStack=0;resizeParent=1;resizeParentMax=0;resizeLast=0;collapsible=0;marginBottom=0;" vertex="1" parent="VsVcQcCOclfDHJGfPfXY-202">
          <mxGeometry x="2096" y="7047" width="792" height="217.66666666666666" as="geometry" />
        </mxCell>
        <mxCell id="VsVcQcCOclfDHJGfPfXY-343" value="#address payable fundsDestination" style="text;strokeColor=none;fillColor=none;align=left;verticalAlign=top;spacingLeft=4;spacingRight=4;overflow=hidden;rotatable=0;points=[[0,0.5],[1,0.5]];portConstraint=eastwest;" vertex="1" parent="VsVcQcCOclfDHJGfPfXY-342">
          <mxGeometry y="34.666666666666664" width="792" height="35" as="geometry" />
        </mxCell>
        <mxCell id="VsVcQcCOclfDHJGfPfXY-344" style="line;strokeWidth=1;fillColor=none;align=left;verticalAlign=middle;spacingTop=-1;spacingLeft=3;spacingRight=3;rotatable=0;labelPosition=right;points=[];portConstraint=eastwest;strokeColor=inherit;" vertex="1" parent="VsVcQcCOclfDHJGfPfXY-342">
          <mxGeometry y="69.66666666666666" width="792" height="8" as="geometry" />
        </mxCell>
        <mxCell id="VsVcQcCOclfDHJGfPfXY-345" value="+event DestinationChanged(address indexed previousDestination, address indexed newDestination)" style="text;strokeColor=none;fillColor=none;align=left;verticalAlign=top;spacingLeft=4;spacingRight=4;overflow=hidden;rotatable=0;points=[[0,0.5],[1,0.5]];portConstraint=eastwest;" vertex="1" parent="VsVcQcCOclfDHJGfPfXY-342">
          <mxGeometry y="77.66666666666666" width="792" height="35" as="geometry" />
        </mxCell>
        <mxCell id="VsVcQcCOclfDHJGfPfXY-346" value="+function setFundsDestination(address payable _newDestination)" style="text;strokeColor=none;fillColor=none;align=left;verticalAlign=top;spacingLeft=4;spacingRight=4;overflow=hidden;rotatable=0;points=[[0,0.5],[1,0.5]];portConstraint=eastwest;" vertex="1" parent="VsVcQcCOclfDHJGfPfXY-342">
          <mxGeometry y="112.66666666666666" width="792" height="35" as="geometry" />
        </mxCell>
        <mxCell id="VsVcQcCOclfDHJGfPfXY-347" value="+function claimNativeCoin()" style="text;strokeColor=none;fillColor=none;align=left;verticalAlign=top;spacingLeft=4;spacingRight=4;overflow=hidden;rotatable=0;points=[[0,0.5],[1,0.5]];portConstraint=eastwest;" vertex="1" parent="VsVcQcCOclfDHJGfPfXY-342">
          <mxGeometry y="147.66666666666666" width="792" height="35" as="geometry" />
        </mxCell>
        <mxCell id="VsVcQcCOclfDHJGfPfXY-348" value="+function claimTokens(address _token)" style="text;strokeColor=none;fillColor=none;align=left;verticalAlign=top;spacingLeft=4;spacingRight=4;overflow=hidden;rotatable=0;points=[[0,0.5],[1,0.5]];portConstraint=eastwest;" vertex="1" parent="VsVcQcCOclfDHJGfPfXY-342">
          <mxGeometry y="182.66666666666666" width="792" height="35" as="geometry" />
        </mxCell>
        <mxCell id="VsVcQcCOclfDHJGfPfXY-349" value="Ownable" style="swimlane;fontStyle=1;align=center;verticalAlign=top;childLayout=stackLayout;horizontal=1;startSize=36.8;horizontalStack=0;resizeParent=1;resizeParentMax=0;resizeLast=0;collapsible=0;marginBottom=0;" vertex="1" parent="VsVcQcCOclfDHJGfPfXY-202">
          <mxGeometry x="2757" y="6782" width="710" height="192.8" as="geometry" />
        </mxCell>
        <mxCell id="VsVcQcCOclfDHJGfPfXY-350" value="-address _owner" style="text;strokeColor=none;fillColor=none;align=left;verticalAlign=top;spacingLeft=4;spacingRight=4;overflow=hidden;rotatable=0;points=[[0,0.5],[1,0.5]];portConstraint=eastwest;" vertex="1" parent="VsVcQcCOclfDHJGfPfXY-349">
          <mxGeometry y="36.8" width="710" height="37" as="geometry" />
        </mxCell>
        <mxCell id="VsVcQcCOclfDHJGfPfXY-351" style="line;strokeWidth=1;fillColor=none;align=left;verticalAlign=middle;spacingTop=-1;spacingLeft=3;spacingRight=3;rotatable=0;labelPosition=right;points=[];portConstraint=eastwest;strokeColor=inherit;" vertex="1" parent="VsVcQcCOclfDHJGfPfXY-349">
          <mxGeometry y="73.8" width="710" height="8" as="geometry" />
        </mxCell>
        <mxCell id="VsVcQcCOclfDHJGfPfXY-352" value="+event OwnershipTransferred(address indexed previousOwner, address indexed newOwner)" style="text;strokeColor=none;fillColor=none;align=left;verticalAlign=top;spacingLeft=4;spacingRight=4;overflow=hidden;rotatable=0;points=[[0,0.5],[1,0.5]];portConstraint=eastwest;" vertex="1" parent="VsVcQcCOclfDHJGfPfXY-349">
          <mxGeometry y="81.8" width="710" height="37" as="geometry" />
        </mxCell>
        <mxCell id="VsVcQcCOclfDHJGfPfXY-353" value="+function owner()" style="text;strokeColor=none;fillColor=none;align=left;verticalAlign=top;spacingLeft=4;spacingRight=4;overflow=hidden;rotatable=0;points=[[0,0.5],[1,0.5]];portConstraint=eastwest;" vertex="1" parent="VsVcQcCOclfDHJGfPfXY-349">
          <mxGeometry y="118.8" width="710" height="37" as="geometry" />
        </mxCell>
        <mxCell id="VsVcQcCOclfDHJGfPfXY-354" value="+function transferOwnership(address newOwner)" style="text;strokeColor=none;fillColor=none;align=left;verticalAlign=top;spacingLeft=4;spacingRight=4;overflow=hidden;rotatable=0;points=[[0,0.5],[1,0.5]];portConstraint=eastwest;" vertex="1" parent="VsVcQcCOclfDHJGfPfXY-349">
          <mxGeometry y="155.8" width="710" height="37" as="geometry" />
        </mxCell>
        <mxCell id="VsVcQcCOclfDHJGfPfXY-355" value="ReentrancyGuard" style="swimlane;fontStyle=1;align=center;verticalAlign=top;childLayout=stackLayout;horizontal=1;startSize=45.333333333333336;horizontalStack=0;resizeParent=1;resizeParentMax=0;resizeLast=0;collapsible=0;marginBottom=0;" vertex="1" parent="VsVcQcCOclfDHJGfPfXY-202">
          <mxGeometry x="2356" y="6806" width="272" height="143.33333333333334" as="geometry" />
        </mxCell>
        <mxCell id="VsVcQcCOclfDHJGfPfXY-356" value="-#uint256 _status" style="text;strokeColor=none;fillColor=none;align=left;verticalAlign=top;spacingLeft=4;spacingRight=4;overflow=hidden;rotatable=0;points=[[0,0.5],[1,0.5]];portConstraint=eastwest;" vertex="1" parent="VsVcQcCOclfDHJGfPfXY-355">
          <mxGeometry y="45.333333333333336" width="272" height="45" as="geometry" />
        </mxCell>
        <mxCell id="VsVcQcCOclfDHJGfPfXY-357" style="line;strokeWidth=1;fillColor=none;align=left;verticalAlign=middle;spacingTop=-1;spacingLeft=3;spacingRight=3;rotatable=0;labelPosition=right;points=[];portConstraint=eastwest;strokeColor=inherit;" vertex="1" parent="VsVcQcCOclfDHJGfPfXY-355">
          <mxGeometry y="90.33333333333334" width="272" height="8" as="geometry" />
        </mxCell>
        <mxCell id="VsVcQcCOclfDHJGfPfXY-358" value="+modifier nonReentrant()" style="text;strokeColor=none;fillColor=none;align=left;verticalAlign=top;spacingLeft=4;spacingRight=4;overflow=hidden;rotatable=0;points=[[0,0.5],[1,0.5]];portConstraint=eastwest;" vertex="1" parent="VsVcQcCOclfDHJGfPfXY-355">
          <mxGeometry y="98.33333333333334" width="272" height="45" as="geometry" />
        </mxCell>
        <mxCell id="VsVcQcCOclfDHJGfPfXY-359" value="Utils" style="swimlane;fontStyle=1;align=center;verticalAlign=top;childLayout=stackLayout;horizontal=1;startSize=34.54545454545455;horizontalStack=0;resizeParent=1;resizeParentMax=0;resizeLast=0;collapsible=0;marginBottom=0;" vertex="1" parent="VsVcQcCOclfDHJGfPfXY-202">
          <mxGeometry x="1904" y="5790" width="265" height="182.54545454545456" as="geometry" />
        </mxCell>
        <mxCell id="VsVcQcCOclfDHJGfPfXY-360" style="line;strokeWidth=1;fillColor=none;align=left;verticalAlign=middle;spacingTop=-1;spacingLeft=3;spacingRight=3;rotatable=0;labelPosition=right;points=[];portConstraint=eastwest;strokeColor=inherit;" vertex="1" parent="VsVcQcCOclfDHJGfPfXY-359">
          <mxGeometry y="34.54545454545455" width="265" height="8" as="geometry" />
        </mxCell>
        <mxCell id="VsVcQcCOclfDHJGfPfXY-361" value="+function getChainID()" style="text;strokeColor=none;fillColor=none;align=left;verticalAlign=top;spacingLeft=4;spacingRight=4;overflow=hidden;rotatable=0;points=[[0,0.5],[1,0.5]];portConstraint=eastwest;" vertex="1" parent="VsVcQcCOclfDHJGfPfXY-359">
          <mxGeometry y="42.54545454545455" width="265" height="35" as="geometry" />
        </mxCell>
        <mxCell id="VsVcQcCOclfDHJGfPfXY-362" value="+function max(uint a, uint b)" style="text;strokeColor=none;fillColor=none;align=left;verticalAlign=top;spacingLeft=4;spacingRight=4;overflow=hidden;rotatable=0;points=[[0,0.5],[1,0.5]];portConstraint=eastwest;" vertex="1" parent="VsVcQcCOclfDHJGfPfXY-359">
          <mxGeometry y="77.54545454545455" width="265" height="35" as="geometry" />
        </mxCell>
        <mxCell id="VsVcQcCOclfDHJGfPfXY-363" value="+function min(uint a, uint b)" style="text;strokeColor=none;fillColor=none;align=left;verticalAlign=top;spacingLeft=4;spacingRight=4;overflow=hidden;rotatable=0;points=[[0,0.5],[1,0.5]];portConstraint=eastwest;" vertex="1" parent="VsVcQcCOclfDHJGfPfXY-359">
          <mxGeometry y="112.54545454545455" width="265" height="35" as="geometry" />
        </mxCell>
        <mxCell id="VsVcQcCOclfDHJGfPfXY-364" value="+function round(uint a, uint m)" style="text;strokeColor=none;fillColor=none;align=left;verticalAlign=top;spacingLeft=4;spacingRight=4;overflow=hidden;rotatable=0;points=[[0,0.5],[1,0.5]];portConstraint=eastwest;" vertex="1" parent="VsVcQcCOclfDHJGfPfXY-359">
          <mxGeometry y="147.54545454545456" width="265" height="35" as="geometry" />
        </mxCell>
        <mxCell id="VsVcQcCOclfDHJGfPfXY-365" value="ECDSA" style="swimlane;fontStyle=1;align=center;verticalAlign=top;childLayout=stackLayout;horizontal=1;startSize=34.54545454545455;horizontalStack=0;resizeParent=1;resizeParentMax=0;resizeLast=0;collapsible=0;marginBottom=0;" vertex="1" parent="VsVcQcCOclfDHJGfPfXY-202">
          <mxGeometry x="4286" y="8213" width="583" height="182.54545454545456" as="geometry" />
        </mxCell>
        <mxCell id="VsVcQcCOclfDHJGfPfXY-366" style="line;strokeWidth=1;fillColor=none;align=left;verticalAlign=middle;spacingTop=-1;spacingLeft=3;spacingRight=3;rotatable=0;labelPosition=right;points=[];portConstraint=eastwest;strokeColor=inherit;" vertex="1" parent="VsVcQcCOclfDHJGfPfXY-365">
          <mxGeometry y="34.54545454545455" width="583" height="8" as="geometry" />
        </mxCell>
        <mxCell id="VsVcQcCOclfDHJGfPfXY-367" value="+function tryRecover(bytes32 hash, bytes memory signature)" style="text;strokeColor=none;fillColor=none;align=left;verticalAlign=top;spacingLeft=4;spacingRight=4;overflow=hidden;rotatable=0;points=[[0,0.5],[1,0.5]];portConstraint=eastwest;" vertex="1" parent="VsVcQcCOclfDHJGfPfXY-365">
          <mxGeometry y="42.54545454545455" width="583" height="35" as="geometry" />
        </mxCell>
        <mxCell id="VsVcQcCOclfDHJGfPfXY-368" value="+function recover(bytes32 hash, bytes memory signature)" style="text;strokeColor=none;fillColor=none;align=left;verticalAlign=top;spacingLeft=4;spacingRight=4;overflow=hidden;rotatable=0;points=[[0,0.5],[1,0.5]];portConstraint=eastwest;" vertex="1" parent="VsVcQcCOclfDHJGfPfXY-365">
          <mxGeometry y="77.54545454545455" width="583" height="35" as="geometry" />
        </mxCell>
        <mxCell id="VsVcQcCOclfDHJGfPfXY-369" value="+function toEthSignedMessageHash(bytes32 hash)" style="text;strokeColor=none;fillColor=none;align=left;verticalAlign=top;spacingLeft=4;spacingRight=4;overflow=hidden;rotatable=0;points=[[0,0.5],[1,0.5]];portConstraint=eastwest;" vertex="1" parent="VsVcQcCOclfDHJGfPfXY-365">
          <mxGeometry y="112.54545454545455" width="583" height="35" as="geometry" />
        </mxCell>
        <mxCell id="VsVcQcCOclfDHJGfPfXY-370" value="+function toTypedDataHash(bytes32 domainSeparator, bytes32 structHash)" style="text;strokeColor=none;fillColor=none;align=left;verticalAlign=top;spacingLeft=4;spacingRight=4;overflow=hidden;rotatable=0;points=[[0,0.5],[1,0.5]];portConstraint=eastwest;" vertex="1" parent="VsVcQcCOclfDHJGfPfXY-365">
          <mxGeometry y="147.54545454545456" width="583" height="35" as="geometry" />
        </mxCell>
        <mxCell id="VsVcQcCOclfDHJGfPfXY-371" value="&lt;&lt;interface&gt;&gt;&#xa;IUniswapV2Router" style="swimlane;fontStyle=1;align=center;verticalAlign=top;childLayout=stackLayout;horizontal=1;startSize=57;horizontalStack=0;resizeParent=1;resizeParentMax=0;resizeLast=0;collapsible=0;marginBottom=0;" vertex="1" parent="VsVcQcCOclfDHJGfPfXY-202">
          <mxGeometry x="3104" y="8213" width="987" height="179" as="geometry" />
        </mxCell>
        <mxCell id="VsVcQcCOclfDHJGfPfXY-372" style="line;strokeWidth=1;fillColor=none;align=left;verticalAlign=middle;spacingTop=-1;spacingLeft=3;spacingRight=3;rotatable=0;labelPosition=right;points=[];portConstraint=eastwest;strokeColor=inherit;" vertex="1" parent="VsVcQcCOclfDHJGfPfXY-371">
          <mxGeometry y="57" width="987" height="8" as="geometry" />
        </mxCell>
        <mxCell id="VsVcQcCOclfDHJGfPfXY-373" value="+function swapExactTokensForTokens(uint amountIn, uint amountOutMin, address[] calldata path, address to, uint deadline)" style="text;strokeColor=none;fillColor=none;align=left;verticalAlign=top;spacingLeft=4;spacingRight=4;overflow=hidden;rotatable=0;points=[[0,0.5],[1,0.5]];portConstraint=eastwest;" vertex="1" parent="VsVcQcCOclfDHJGfPfXY-371">
          <mxGeometry y="65" width="987" height="38" as="geometry" />
        </mxCell>
        <mxCell id="VsVcQcCOclfDHJGfPfXY-374" value="+function swapExactETHForTokens(uint amountOutMin, address[] calldata path, address to, uint deadline)" style="text;strokeColor=none;fillColor=none;align=left;verticalAlign=top;spacingLeft=4;spacingRight=4;overflow=hidden;rotatable=0;points=[[0,0.5],[1,0.5]];portConstraint=eastwest;" vertex="1" parent="VsVcQcCOclfDHJGfPfXY-371">
          <mxGeometry y="103" width="987" height="38" as="geometry" />
        </mxCell>
        <mxCell id="VsVcQcCOclfDHJGfPfXY-375" value="+function getAmountsOut(uint amountIn, address[] calldata path)" style="text;strokeColor=none;fillColor=none;align=left;verticalAlign=top;spacingLeft=4;spacingRight=4;overflow=hidden;rotatable=0;points=[[0,0.5],[1,0.5]];portConstraint=eastwest;" vertex="1" parent="VsVcQcCOclfDHJGfPfXY-371">
          <mxGeometry y="141" width="987" height="38" as="geometry" />
        </mxCell>
        <mxCell id="VsVcQcCOclfDHJGfPfXY-376" value="&lt;&lt;interface&gt;&gt;&#xa;IERC20Token" style="swimlane;fontStyle=1;align=center;verticalAlign=top;childLayout=stackLayout;horizontal=1;startSize=53.5;horizontalStack=0;resizeParent=1;resizeParentMax=0;resizeLast=0;collapsible=0;marginBottom=0;" vertex="1" parent="VsVcQcCOclfDHJGfPfXY-202">
          <mxGeometry x="1755" y="8201" width="612" height="205.5" as="geometry" />
        </mxCell>
        <mxCell id="VsVcQcCOclfDHJGfPfXY-377" style="line;strokeWidth=1;fillColor=none;align=left;verticalAlign=middle;spacingTop=-1;spacingLeft=3;spacingRight=3;rotatable=0;labelPosition=right;points=[];portConstraint=eastwest;strokeColor=inherit;" vertex="1" parent="VsVcQcCOclfDHJGfPfXY-376">
          <mxGeometry y="53.5" width="612" height="8" as="geometry" />
        </mxCell>
        <mxCell id="VsVcQcCOclfDHJGfPfXY-378" value="+function transfer(address recipient, uint256 amount)" style="text;strokeColor=none;fillColor=none;align=left;verticalAlign=top;spacingLeft=4;spacingRight=4;overflow=hidden;rotatable=0;points=[[0,0.5],[1,0.5]];portConstraint=eastwest;" vertex="1" parent="VsVcQcCOclfDHJGfPfXY-376">
          <mxGeometry y="61.5" width="612" height="36" as="geometry" />
        </mxCell>
        <mxCell id="VsVcQcCOclfDHJGfPfXY-379" value="+function balanceOf(address account)" style="text;strokeColor=none;fillColor=none;align=left;verticalAlign=top;spacingLeft=4;spacingRight=4;overflow=hidden;rotatable=0;points=[[0,0.5],[1,0.5]];portConstraint=eastwest;" vertex="1" parent="VsVcQcCOclfDHJGfPfXY-376">
          <mxGeometry y="97.5" width="612" height="36" as="geometry" />
        </mxCell>
        <mxCell id="VsVcQcCOclfDHJGfPfXY-380" value="+function approve(address spender, uint256 amount)" style="text;strokeColor=none;fillColor=none;align=left;verticalAlign=top;spacingLeft=4;spacingRight=4;overflow=hidden;rotatable=0;points=[[0,0.5],[1,0.5]];portConstraint=eastwest;" vertex="1" parent="VsVcQcCOclfDHJGfPfXY-376">
          <mxGeometry y="133.5" width="612" height="36" as="geometry" />
        </mxCell>
        <mxCell id="VsVcQcCOclfDHJGfPfXY-381" value="+function transferFrom(address sender, address recipient, uint256 amount)" style="text;strokeColor=none;fillColor=none;align=left;verticalAlign=top;spacingLeft=4;spacingRight=4;overflow=hidden;rotatable=0;points=[[0,0.5],[1,0.5]];portConstraint=eastwest;" vertex="1" parent="VsVcQcCOclfDHJGfPfXY-376">
          <mxGeometry y="169.5" width="612" height="36" as="geometry" />
        </mxCell>
        <mxCell id="VsVcQcCOclfDHJGfPfXY-382" value="&lt;&lt;interface&gt;&gt;&#xa;IdentityRegistry" style="swimlane;fontStyle=1;align=center;verticalAlign=top;childLayout=stackLayout;horizontal=1;startSize=57;horizontalStack=0;resizeParent=1;resizeParentMax=0;resizeLast=0;collapsible=0;marginBottom=0;" vertex="1" parent="VsVcQcCOclfDHJGfPfXY-202">
          <mxGeometry x="626" y="8213" width="769" height="179" as="geometry" />
        </mxCell>
        <mxCell id="VsVcQcCOclfDHJGfPfXY-383" style="line;strokeWidth=1;fillColor=none;align=left;verticalAlign=middle;spacingTop=-1;spacingLeft=3;spacingRight=3;rotatable=0;labelPosition=right;points=[];portConstraint=eastwest;strokeColor=inherit;" vertex="1" parent="VsVcQcCOclfDHJGfPfXY-382">
          <mxGeometry y="57" width="769" height="8" as="geometry" />
        </mxCell>
        <mxCell id="VsVcQcCOclfDHJGfPfXY-384" value="+function isRegistered(address _identity)" style="text;strokeColor=none;fillColor=none;align=left;verticalAlign=top;spacingLeft=4;spacingRight=4;overflow=hidden;rotatable=0;points=[[0,0.5],[1,0.5]];portConstraint=eastwest;" vertex="1" parent="VsVcQcCOclfDHJGfPfXY-382">
          <mxGeometry y="65" width="769" height="38" as="geometry" />
        </mxCell>
        <mxCell id="VsVcQcCOclfDHJGfPfXY-385" value="+function getBeneficiary(address _identity)" style="text;strokeColor=none;fillColor=none;align=left;verticalAlign=top;spacingLeft=4;spacingRight=4;overflow=hidden;rotatable=0;points=[[0,0.5],[1,0.5]];portConstraint=eastwest;" vertex="1" parent="VsVcQcCOclfDHJGfPfXY-382">
          <mxGeometry y="103" width="769" height="38" as="geometry" />
        </mxCell>
        <mxCell id="VsVcQcCOclfDHJGfPfXY-386" value="+function setBeneficiary(address _identity, address _newBeneficiary, bytes memory _signature)" style="text;strokeColor=none;fillColor=none;align=left;verticalAlign=top;spacingLeft=4;spacingRight=4;overflow=hidden;rotatable=0;points=[[0,0.5],[1,0.5]];portConstraint=eastwest;" vertex="1" parent="VsVcQcCOclfDHJGfPfXY-382">
          <mxGeometry y="141" width="769" height="38" as="geometry" />
        </mxCell>
        <mxCell id="VsVcQcCOclfDHJGfPfXY-387" value="Hermes" style="swimlane;fontStyle=1;align=center;verticalAlign=top;childLayout=stackLayout;horizontal=1;startSize=36.8;horizontalStack=0;resizeParent=1;resizeParentMax=0;resizeLast=0;collapsible=0;marginBottom=0;" vertex="1" parent="VsVcQcCOclfDHJGfPfXY-202">
          <mxGeometry x="164" y="8216" width="412" height="192.8" as="geometry" />
        </mxCell>
        <mxCell id="VsVcQcCOclfDHJGfPfXY-388" value="- address operator" style="text;strokeColor=none;fillColor=none;align=left;verticalAlign=top;spacingLeft=4;spacingRight=4;overflow=hidden;rotatable=0;points=[[0,0.5],[1,0.5]];portConstraint=eastwest;" vertex="1" parent="VsVcQcCOclfDHJGfPfXY-387">
          <mxGeometry y="36.8" width="412" height="37" as="geometry" />
        </mxCell>
        <mxCell id="VsVcQcCOclfDHJGfPfXY-389" value="- uint256 implVer" style="text;strokeColor=none;fillColor=none;align=left;verticalAlign=top;spacingLeft=4;spacingRight=4;overflow=hidden;rotatable=0;points=[[0,0.5],[1,0.5]];portConstraint=eastwest;" vertex="1" parent="VsVcQcCOclfDHJGfPfXY-387">
          <mxGeometry y="73.8" width="412" height="37" as="geometry" />
        </mxCell>
        <mxCell id="VsVcQcCOclfDHJGfPfXY-390" value="- bytes url" style="text;strokeColor=none;fillColor=none;align=left;verticalAlign=top;spacingLeft=4;spacingRight=4;overflow=hidden;rotatable=0;points=[[0,0.5],[1,0.5]];portConstraint=eastwest;" vertex="1" parent="VsVcQcCOclfDHJGfPfXY-387">
          <mxGeometry y="110.8" width="412" height="37" as="geometry" />
        </mxCell>
        <mxCell id="VsVcQcCOclfDHJGfPfXY-391" style="line;strokeWidth=1;fillColor=none;align=left;verticalAlign=middle;spacingTop=-1;spacingLeft=3;spacingRight=3;rotatable=0;labelPosition=right;points=[];portConstraint=eastwest;strokeColor=inherit;" vertex="1" parent="VsVcQcCOclfDHJGfPfXY-387">
          <mxGeometry y="147.8" width="412" height="8" as="geometry" />
        </mxCell>
        <mxCell id="VsVcQcCOclfDHJGfPfXY-392" value="- function() external view returns(uint256) : stake" style="text;strokeColor=none;fillColor=none;align=left;verticalAlign=top;spacingLeft=4;spacingRight=4;overflow=hidden;rotatable=0;points=[[0,0.5],[1,0.5]];portConstraint=eastwest;" vertex="1" parent="VsVcQcCOclfDHJGfPfXY-387">
          <mxGeometry y="155.8" width="412" height="37" as="geometry" />
        </mxCell>
        <mxCell id="VsVcQcCOclfDHJGfPfXY-393" value="Implementation" style="swimlane;fontStyle=1;align=center;verticalAlign=top;childLayout=stackLayout;horizontal=1;startSize=38.857142857142854;horizontalStack=0;resizeParent=1;resizeParentMax=0;resizeLast=0;collapsible=0;marginBottom=0;" vertex="1" parent="VsVcQcCOclfDHJGfPfXY-202">
          <mxGeometry x="760" y="6806" width="295" height="135.85714285714286" as="geometry" />
        </mxCell>
        <mxCell id="VsVcQcCOclfDHJGfPfXY-394" value="- address channelImplAddress" style="text;strokeColor=none;fillColor=none;align=left;verticalAlign=top;spacingLeft=4;spacingRight=4;overflow=hidden;rotatable=0;points=[[0,0.5],[1,0.5]];portConstraint=eastwest;" vertex="1" parent="VsVcQcCOclfDHJGfPfXY-393">
          <mxGeometry y="38.857142857142854" width="295" height="39" as="geometry" />
        </mxCell>
        <mxCell id="VsVcQcCOclfDHJGfPfXY-395" value="- address hermesImplAddress" style="text;strokeColor=none;fillColor=none;align=left;verticalAlign=top;spacingLeft=4;spacingRight=4;overflow=hidden;rotatable=0;points=[[0,0.5],[1,0.5]];portConstraint=eastwest;" vertex="1" parent="VsVcQcCOclfDHJGfPfXY-393">
          <mxGeometry y="77.85714285714286" width="295" height="39" as="geometry" />
        </mxCell>
        <mxCell id="VsVcQcCOclfDHJGfPfXY-396" style="line;strokeWidth=1;fillColor=none;align=left;verticalAlign=middle;spacingTop=-1;spacingLeft=3;spacingRight=3;rotatable=0;labelPosition=right;points=[];portConstraint=eastwest;strokeColor=inherit;" vertex="1" parent="VsVcQcCOclfDHJGfPfXY-393">
          <mxGeometry y="116.85714285714286" width="295" height="19" as="geometry" />
        </mxCell>
        <mxCell id="VsVcQcCOclfDHJGfPfXY-397" value="HermesFee" style="swimlane;fontStyle=1;align=center;verticalAlign=top;childLayout=stackLayout;horizontal=1;startSize=38.857142857142854;horizontalStack=0;resizeParent=1;resizeParentMax=0;resizeLast=0;collapsible=0;marginBottom=0;" vertex="1" parent="VsVcQcCOclfDHJGfPfXY-202">
          <mxGeometry x="5805" y="8240" width="198" height="135.85714285714286" as="geometry" />
        </mxCell>
        <mxCell id="VsVcQcCOclfDHJGfPfXY-398" value="- uint16 value" style="text;strokeColor=none;fillColor=none;align=left;verticalAlign=top;spacingLeft=4;spacingRight=4;overflow=hidden;rotatable=0;points=[[0,0.5],[1,0.5]];portConstraint=eastwest;" vertex="1" parent="VsVcQcCOclfDHJGfPfXY-397">
          <mxGeometry y="38.857142857142854" width="198" height="39" as="geometry" />
        </mxCell>
        <mxCell id="VsVcQcCOclfDHJGfPfXY-399" value="- uint64 validFrom" style="text;strokeColor=none;fillColor=none;align=left;verticalAlign=top;spacingLeft=4;spacingRight=4;overflow=hidden;rotatable=0;points=[[0,0.5],[1,0.5]];portConstraint=eastwest;" vertex="1" parent="VsVcQcCOclfDHJGfPfXY-397">
          <mxGeometry y="77.85714285714286" width="198" height="39" as="geometry" />
        </mxCell>
        <mxCell id="VsVcQcCOclfDHJGfPfXY-400" style="line;strokeWidth=1;fillColor=none;align=left;verticalAlign=middle;spacingTop=-1;spacingLeft=3;spacingRight=3;rotatable=0;labelPosition=right;points=[];portConstraint=eastwest;strokeColor=inherit;" vertex="1" parent="VsVcQcCOclfDHJGfPfXY-397">
          <mxGeometry y="116.85714285714286" width="198" height="19" as="geometry" />
        </mxCell>
        <mxCell id="VsVcQcCOclfDHJGfPfXY-401" value="Channel" style="swimlane;fontStyle=1;align=center;verticalAlign=top;childLayout=stackLayout;horizontal=1;startSize=33.45454545454545;horizontalStack=0;resizeParent=1;resizeParentMax=0;resizeLast=0;collapsible=0;marginBottom=0;" vertex="1" parent="VsVcQcCOclfDHJGfPfXY-202">
          <mxGeometry x="4919" y="8216" width="228" height="182.45454545454544" as="geometry" />
        </mxCell>
        <mxCell id="VsVcQcCOclfDHJGfPfXY-402" value="- uint256 settled" style="text;strokeColor=none;fillColor=none;align=left;verticalAlign=top;spacingLeft=4;spacingRight=4;overflow=hidden;rotatable=0;points=[[0,0.5],[1,0.5]];portConstraint=eastwest;" vertex="1" parent="VsVcQcCOclfDHJGfPfXY-401">
          <mxGeometry y="33.45454545454545" width="228" height="33" as="geometry" />
        </mxCell>
        <mxCell id="VsVcQcCOclfDHJGfPfXY-403" value="- uint256 stake" style="text;strokeColor=none;fillColor=none;align=left;verticalAlign=top;spacingLeft=4;spacingRight=4;overflow=hidden;rotatable=0;points=[[0,0.5],[1,0.5]];portConstraint=eastwest;" vertex="1" parent="VsVcQcCOclfDHJGfPfXY-401">
          <mxGeometry y="66.45454545454545" width="228" height="33" as="geometry" />
        </mxCell>
        <mxCell id="VsVcQcCOclfDHJGfPfXY-404" value="- uint256 lastUsedNonce" style="text;strokeColor=none;fillColor=none;align=left;verticalAlign=top;spacingLeft=4;spacingRight=4;overflow=hidden;rotatable=0;points=[[0,0.5],[1,0.5]];portConstraint=eastwest;" vertex="1" parent="VsVcQcCOclfDHJGfPfXY-401">
          <mxGeometry y="99.45454545454545" width="228" height="33" as="geometry" />
        </mxCell>
        <mxCell id="VsVcQcCOclfDHJGfPfXY-405" value="- uint256 timelock" style="text;strokeColor=none;fillColor=none;align=left;verticalAlign=top;spacingLeft=4;spacingRight=4;overflow=hidden;rotatable=0;points=[[0,0.5],[1,0.5]];portConstraint=eastwest;" vertex="1" parent="VsVcQcCOclfDHJGfPfXY-401">
          <mxGeometry y="132.45454545454544" width="228" height="33" as="geometry" />
        </mxCell>
        <mxCell id="VsVcQcCOclfDHJGfPfXY-406" style="line;strokeWidth=1;fillColor=none;align=left;verticalAlign=middle;spacingTop=-1;spacingLeft=3;spacingRight=3;rotatable=0;labelPosition=right;points=[];portConstraint=eastwest;strokeColor=inherit;" vertex="1" parent="VsVcQcCOclfDHJGfPfXY-401">
          <mxGeometry y="165.45454545454544" width="228" height="17" as="geometry" />
        </mxCell>
        <mxCell id="VsVcQcCOclfDHJGfPfXY-407" value="Punishment" style="swimlane;fontStyle=1;align=center;verticalAlign=top;childLayout=stackLayout;horizontal=1;startSize=38.857142857142854;horizontalStack=0;resizeParent=1;resizeParentMax=0;resizeLast=0;collapsible=0;marginBottom=0;" vertex="1" parent="VsVcQcCOclfDHJGfPfXY-202">
          <mxGeometry x="5197" y="8240" width="282" height="135.85714285714286" as="geometry" />
        </mxCell>
        <mxCell id="VsVcQcCOclfDHJGfPfXY-408" value="- uint256 activationBlockTime" style="text;strokeColor=none;fillColor=none;align=left;verticalAlign=top;spacingLeft=4;spacingRight=4;overflow=hidden;rotatable=0;points=[[0,0.5],[1,0.5]];portConstraint=eastwest;" vertex="1" parent="VsVcQcCOclfDHJGfPfXY-407">
          <mxGeometry y="38.857142857142854" width="282" height="39" as="geometry" />
        </mxCell>
        <mxCell id="VsVcQcCOclfDHJGfPfXY-409" value="- uint256 amount" style="text;strokeColor=none;fillColor=none;align=left;verticalAlign=top;spacingLeft=4;spacingRight=4;overflow=hidden;rotatable=0;points=[[0,0.5],[1,0.5]];portConstraint=eastwest;" vertex="1" parent="VsVcQcCOclfDHJGfPfXY-407">
          <mxGeometry y="77.85714285714286" width="282" height="39" as="geometry" />
        </mxCell>
        <mxCell id="VsVcQcCOclfDHJGfPfXY-410" style="line;strokeWidth=1;fillColor=none;align=left;verticalAlign=middle;spacingTop=-1;spacingLeft=3;spacingRight=3;rotatable=0;labelPosition=right;points=[];portConstraint=eastwest;strokeColor=inherit;" vertex="1" parent="VsVcQcCOclfDHJGfPfXY-407">
          <mxGeometry y="116.85714285714286" width="282" height="19" as="geometry" />
        </mxCell>
        <mxCell id="VsVcQcCOclfDHJGfPfXY-411" value="StatusEnum" style="swimlane;fontStyle=1;align=center;verticalAlign=top;childLayout=stackLayout;horizontal=1;startSize=33.45454545454545;horizontalStack=0;resizeParent=1;resizeParentMax=0;resizeLast=0;collapsible=0;marginBottom=0;" vertex="1" parent="VsVcQcCOclfDHJGfPfXY-202">
          <mxGeometry x="5529" y="8216" width="226" height="182.45454545454544" as="geometry" />
        </mxCell>
        <mxCell id="VsVcQcCOclfDHJGfPfXY-412" value="- uint256 Active," style="text;strokeColor=none;fillColor=none;align=left;verticalAlign=top;spacingLeft=4;spacingRight=4;overflow=hidden;rotatable=0;points=[[0,0.5],[1,0.5]];portConstraint=eastwest;" vertex="1" parent="VsVcQcCOclfDHJGfPfXY-411">
          <mxGeometry y="33.45454545454545" width="226" height="33" as="geometry" />
        </mxCell>
        <mxCell id="VsVcQcCOclfDHJGfPfXY-413" value="- uint256 Paused," style="text;strokeColor=none;fillColor=none;align=left;verticalAlign=top;spacingLeft=4;spacingRight=4;overflow=hidden;rotatable=0;points=[[0,0.5],[1,0.5]];portConstraint=eastwest;" vertex="1" parent="VsVcQcCOclfDHJGfPfXY-411">
          <mxGeometry y="66.45454545454545" width="226" height="33" as="geometry" />
        </mxCell>
        <mxCell id="VsVcQcCOclfDHJGfPfXY-414" value="- uint256 Punishment," style="text;strokeColor=none;fillColor=none;align=left;verticalAlign=top;spacingLeft=4;spacingRight=4;overflow=hidden;rotatable=0;points=[[0,0.5],[1,0.5]];portConstraint=eastwest;" vertex="1" parent="VsVcQcCOclfDHJGfPfXY-411">
          <mxGeometry y="99.45454545454545" width="226" height="33" as="geometry" />
        </mxCell>
        <mxCell id="VsVcQcCOclfDHJGfPfXY-415" value="- uint256 Closed" style="text;strokeColor=none;fillColor=none;align=left;verticalAlign=top;spacingLeft=4;spacingRight=4;overflow=hidden;rotatable=0;points=[[0,0.5],[1,0.5]];portConstraint=eastwest;" vertex="1" parent="VsVcQcCOclfDHJGfPfXY-411">
          <mxGeometry y="132.45454545454544" width="226" height="33" as="geometry" />
        </mxCell>
        <mxCell id="VsVcQcCOclfDHJGfPfXY-416" style="line;strokeWidth=1;fillColor=none;align=left;verticalAlign=middle;spacingTop=-1;spacingLeft=3;spacingRight=3;rotatable=0;labelPosition=right;points=[];portConstraint=eastwest;strokeColor=inherit;" vertex="1" parent="VsVcQcCOclfDHJGfPfXY-411">
          <mxGeometry y="165.45454545454544" width="226" height="17" as="geometry" />
        </mxCell>
        <mxCell id="VsVcQcCOclfDHJGfPfXY-417" value="address" style="swimlane;fontStyle=1;align=center;verticalAlign=top;childLayout=stackLayout;horizontal=1;startSize=38;horizontalStack=0;resizeParent=1;resizeParentMax=0;resizeLast=0;collapsible=0;marginBottom=0;" vertex="1" parent="VsVcQcCOclfDHJGfPfXY-202">
          <mxGeometry x="1106" y="6836" width="81" height="57" as="geometry" />
        </mxCell>
        <mxCell id="VsVcQcCOclfDHJGfPfXY-418" style="line;strokeWidth=1;fillColor=none;align=left;verticalAlign=middle;spacingTop=-1;spacingLeft=3;spacingRight=3;rotatable=0;labelPosition=right;points=[];portConstraint=eastwest;strokeColor=inherit;" vertex="1" parent="VsVcQcCOclfDHJGfPfXY-417">
          <mxGeometry y="38" width="81" height="19" as="geometry" />
        </mxCell>
        <mxCell id="VsVcQcCOclfDHJGfPfXY-419" value="manages" style="curved=1;startArrow=none;endArrow=none;exitX=0.51;exitY=1;entryX=0.5;entryY=0;rounded=0;" edge="1" parent="VsVcQcCOclfDHJGfPfXY-202" source="VsVcQcCOclfDHJGfPfXY-268" target="VsVcQcCOclfDHJGfPfXY-393">
          <mxGeometry relative="1" as="geometry">
            <Array as="points">
              <mxPoint x="908" y="6746" />
            </Array>
          </mxGeometry>
        </mxCell>
        <mxCell id="VsVcQcCOclfDHJGfPfXY-420" value="1" style="edgeLabel;resizable=0;labelBackgroundColor=none;fontSize=12;align=right;verticalAlign=top;" vertex="1" parent="VsVcQcCOclfDHJGfPfXY-419">
          <mxGeometry x="-1" relative="1" as="geometry" />
        </mxCell>
        <mxCell id="VsVcQcCOclfDHJGfPfXY-421" value="0..*" style="edgeLabel;resizable=0;labelBackgroundColor=none;fontSize=12;align=left;verticalAlign=bottom;" vertex="1" parent="VsVcQcCOclfDHJGfPfXY-419">
          <mxGeometry x="1" relative="1" as="geometry" />
        </mxCell>
        <mxCell id="VsVcQcCOclfDHJGfPfXY-422" value="manages" style="curved=1;startArrow=none;endArrow=none;exitX=0.2;exitY=1;entryX=0.5;entryY=0;rounded=0;" edge="1" parent="VsVcQcCOclfDHJGfPfXY-202" source="VsVcQcCOclfDHJGfPfXY-268" target="VsVcQcCOclfDHJGfPfXY-387">
          <mxGeometry relative="1" as="geometry">
            <Array as="points">
              <mxPoint x="370" y="6746" />
            </Array>
          </mxGeometry>
        </mxCell>
        <mxCell id="VsVcQcCOclfDHJGfPfXY-423" value="1" style="edgeLabel;resizable=0;labelBackgroundColor=none;fontSize=12;align=right;verticalAlign=top;" vertex="1" parent="VsVcQcCOclfDHJGfPfXY-422">
          <mxGeometry x="-1" relative="1" as="geometry" />
        </mxCell>
        <mxCell id="VsVcQcCOclfDHJGfPfXY-424" value="*" style="edgeLabel;resizable=0;labelBackgroundColor=none;fontSize=12;align=left;verticalAlign=bottom;" vertex="1" parent="VsVcQcCOclfDHJGfPfXY-422">
          <mxGeometry x="1" relative="1" as="geometry" />
        </mxCell>
        <mxCell id="VsVcQcCOclfDHJGfPfXY-425" value="manages Identities" style="curved=1;startArrow=none;endArrow=none;exitX=0.65;exitY=1;entryX=0.5;entryY=0;rounded=0;" edge="1" parent="VsVcQcCOclfDHJGfPfXY-202" source="VsVcQcCOclfDHJGfPfXY-268" target="VsVcQcCOclfDHJGfPfXY-417">
          <mxGeometry relative="1" as="geometry">
            <Array as="points">
              <mxPoint x="1146" y="6746" />
            </Array>
          </mxGeometry>
        </mxCell>
        <mxCell id="VsVcQcCOclfDHJGfPfXY-426" value="1" style="edgeLabel;resizable=0;labelBackgroundColor=none;fontSize=12;align=right;verticalAlign=top;" vertex="1" parent="VsVcQcCOclfDHJGfPfXY-425">
          <mxGeometry x="-1" relative="1" as="geometry" />
        </mxCell>
        <mxCell id="VsVcQcCOclfDHJGfPfXY-427" value="*" style="edgeLabel;resizable=0;labelBackgroundColor=none;fontSize=12;align=left;verticalAlign=bottom;" vertex="1" parent="VsVcQcCOclfDHJGfPfXY-425">
          <mxGeometry x="1" relative="1" as="geometry" />
        </mxCell>
        <mxCell id="VsVcQcCOclfDHJGfPfXY-428" value="manages" style="curved=1;startArrow=none;endArrow=none;exitX=1;exitY=0.98;entryX=0.5;entryY=0;rounded=0;" edge="1" parent="VsVcQcCOclfDHJGfPfXY-202" source="VsVcQcCOclfDHJGfPfXY-311" target="VsVcQcCOclfDHJGfPfXY-401">
          <mxGeometry relative="1" as="geometry">
            <Array as="points">
              <mxPoint x="5033" y="8165" />
            </Array>
          </mxGeometry>
        </mxCell>
        <mxCell id="VsVcQcCOclfDHJGfPfXY-429" value="1" style="edgeLabel;resizable=0;labelBackgroundColor=none;fontSize=12;align=right;verticalAlign=top;" vertex="1" parent="VsVcQcCOclfDHJGfPfXY-428">
          <mxGeometry x="-1" relative="1" as="geometry" />
        </mxCell>
        <mxCell id="VsVcQcCOclfDHJGfPfXY-430" value="*" style="edgeLabel;resizable=0;labelBackgroundColor=none;fontSize=12;align=left;verticalAlign=bottom;" vertex="1" parent="VsVcQcCOclfDHJGfPfXY-428">
          <mxGeometry x="1" relative="1" as="geometry" />
        </mxCell>
        <mxCell id="VsVcQcCOclfDHJGfPfXY-431" value="manages" style="curved=1;startArrow=none;endArrow=none;exitX=1;exitY=0.84;entryX=0.5;entryY=0;rounded=0;" edge="1" parent="VsVcQcCOclfDHJGfPfXY-202" source="VsVcQcCOclfDHJGfPfXY-311" target="VsVcQcCOclfDHJGfPfXY-407">
          <mxGeometry relative="1" as="geometry">
            <Array as="points">
              <mxPoint x="5338" y="8165" />
            </Array>
          </mxGeometry>
        </mxCell>
        <mxCell id="VsVcQcCOclfDHJGfPfXY-432" value="1" style="edgeLabel;resizable=0;labelBackgroundColor=none;fontSize=12;align=left;verticalAlign=top;" vertex="1" parent="VsVcQcCOclfDHJGfPfXY-431">
          <mxGeometry x="-1" relative="1" as="geometry" />
        </mxCell>
        <mxCell id="VsVcQcCOclfDHJGfPfXY-433" value="1" style="edgeLabel;resizable=0;labelBackgroundColor=none;fontSize=12;align=right;verticalAlign=bottom;" vertex="1" parent="VsVcQcCOclfDHJGfPfXY-431">
          <mxGeometry x="1" relative="1" as="geometry" />
        </mxCell>
        <mxCell id="VsVcQcCOclfDHJGfPfXY-434" value="has" style="curved=1;startArrow=none;endArrow=none;exitX=1;exitY=0.77;entryX=0.5;entryY=0;rounded=0;" edge="1" parent="VsVcQcCOclfDHJGfPfXY-202" source="VsVcQcCOclfDHJGfPfXY-311" target="VsVcQcCOclfDHJGfPfXY-411">
          <mxGeometry relative="1" as="geometry">
            <Array as="points">
              <mxPoint x="5642" y="8165" />
            </Array>
          </mxGeometry>
        </mxCell>
        <mxCell id="VsVcQcCOclfDHJGfPfXY-435" value="has lastFee" style="curved=1;startArrow=none;endArrow=none;exitX=1;exitY=0.74;entryX=0.27;entryY=0;rounded=0;" edge="1" parent="VsVcQcCOclfDHJGfPfXY-202" source="VsVcQcCOclfDHJGfPfXY-311" target="VsVcQcCOclfDHJGfPfXY-397">
          <mxGeometry relative="1" as="geometry">
            <Array as="points">
              <mxPoint x="5811" y="8165" />
            </Array>
          </mxGeometry>
        </mxCell>
        <mxCell id="VsVcQcCOclfDHJGfPfXY-436" value="has previousFee" style="curved=1;startArrow=none;endArrow=none;exitX=1;exitY=0.71;entryX=0.65;entryY=0;rounded=0;" edge="1" parent="VsVcQcCOclfDHJGfPfXY-202" source="VsVcQcCOclfDHJGfPfXY-311" target="VsVcQcCOclfDHJGfPfXY-397">
          <mxGeometry relative="1" as="geometry">
            <Array as="points">
              <mxPoint x="5965" y="8165" />
            </Array>
          </mxGeometry>
        </mxCell>
        <mxCell id="VsVcQcCOclfDHJGfPfXY-437" value="has" style="curved=1;startArrow=none;endArrow=none;exitX=0;exitY=0.88;entryX=1;entryY=0.01;rounded=0;" edge="1" parent="VsVcQcCOclfDHJGfPfXY-202" source="VsVcQcCOclfDHJGfPfXY-293" target="VsVcQcCOclfDHJGfPfXY-387">
          <mxGeometry relative="1" as="geometry">
            <Array as="points">
              <mxPoint x="690" y="8165" />
            </Array>
          </mxGeometry>
        </mxCell>
        <mxCell id="VsVcQcCOclfDHJGfPfXY-438" value="uses" style="curved=1;startArrow=none;endArrow=none;exitX=0.4;exitY=1;entryX=0.25;entryY=0;rounded=0;" edge="1" parent="VsVcQcCOclfDHJGfPfXY-202" source="VsVcQcCOclfDHJGfPfXY-268" target="VsVcQcCOclfDHJGfPfXY-382">
          <mxGeometry relative="1" as="geometry">
            <Array as="points">
              <mxPoint x="725" y="6746" />
              <mxPoint x="725" y="8165" />
            </Array>
          </mxGeometry>
        </mxCell>
        <mxCell id="VsVcQcCOclfDHJGfPfXY-439" value="uses" style="curved=1;startArrow=none;endArrow=none;exitX=0;exitY=0.62;entryX=0.72;entryY=0;rounded=0;" edge="1" parent="VsVcQcCOclfDHJGfPfXY-202" source="VsVcQcCOclfDHJGfPfXY-311" target="VsVcQcCOclfDHJGfPfXY-382">
          <mxGeometry relative="1" as="geometry">
            <Array as="points">
              <mxPoint x="1264" y="8165" />
            </Array>
          </mxGeometry>
        </mxCell>
        <mxCell id="VsVcQcCOclfDHJGfPfXY-440" value="uses" style="curved=1;dashed=1;startArrow=none;endArrow=none;exitX=0.74;exitY=1;entryX=0;entryY=0.23;rounded=0;" edge="1" parent="VsVcQcCOclfDHJGfPfXY-202" source="VsVcQcCOclfDHJGfPfXY-268" target="VsVcQcCOclfDHJGfPfXY-376">
          <mxGeometry relative="1" as="geometry">
            <Array as="points">
              <mxPoint x="1301" y="6746" />
              <mxPoint x="1301" y="8165" />
            </Array>
          </mxGeometry>
        </mxCell>
        <mxCell id="VsVcQcCOclfDHJGfPfXY-441" value="uses" style="curved=1;dashed=1;startArrow=none;endArrow=none;exitX=0.5;exitY=1;entryX=0.81;entryY=0;rounded=0;" edge="1" parent="VsVcQcCOclfDHJGfPfXY-202" source="VsVcQcCOclfDHJGfPfXY-293" target="VsVcQcCOclfDHJGfPfXY-376">
          <mxGeometry relative="1" as="geometry">
            <Array as="points">
              <mxPoint x="2314" y="8165" />
            </Array>
          </mxGeometry>
        </mxCell>
        <mxCell id="VsVcQcCOclfDHJGfPfXY-442" value="uses" style="curved=1;dashed=1;startArrow=none;endArrow=none;exitX=0;exitY=0.79;entryX=1;entryY=0.29;rounded=0;" edge="1" parent="VsVcQcCOclfDHJGfPfXY-202" source="VsVcQcCOclfDHJGfPfXY-311" target="VsVcQcCOclfDHJGfPfXY-376">
          <mxGeometry relative="1" as="geometry">
            <Array as="points">
              <mxPoint x="3043" y="8165" />
            </Array>
          </mxGeometry>
        </mxCell>
        <mxCell id="VsVcQcCOclfDHJGfPfXY-443" value="uses" style="curved=1;dashed=1;startArrow=none;endArrow=none;exitX=1;exitY=0.66;entryX=0.44;entryY=0;rounded=0;" edge="1" parent="VsVcQcCOclfDHJGfPfXY-202" source="VsVcQcCOclfDHJGfPfXY-268" target="VsVcQcCOclfDHJGfPfXY-371">
          <mxGeometry relative="1" as="geometry">
            <Array as="points">
              <mxPoint x="3502" y="6746" />
              <mxPoint x="3502" y="8165" />
            </Array>
          </mxGeometry>
        </mxCell>
        <mxCell id="VsVcQcCOclfDHJGfPfXY-444" value="uses" style="curved=1;dashed=1;startArrow=none;endArrow=none;exitX=1;exitY=0.98;entryX=0.5;entryY=0;rounded=0;" edge="1" parent="VsVcQcCOclfDHJGfPfXY-202" source="VsVcQcCOclfDHJGfPfXY-293" target="VsVcQcCOclfDHJGfPfXY-371">
          <mxGeometry relative="1" as="geometry">
            <Array as="points">
              <mxPoint x="3597" y="8165" />
            </Array>
          </mxGeometry>
        </mxCell>
        <mxCell id="VsVcQcCOclfDHJGfPfXY-445" value="uses" style="curved=1;dashed=1;startArrow=none;endArrow=none;exitX=0.23;exitY=1;entryX=0.7;entryY=0;rounded=0;" edge="1" parent="VsVcQcCOclfDHJGfPfXY-202" source="VsVcQcCOclfDHJGfPfXY-311" target="VsVcQcCOclfDHJGfPfXY-371">
          <mxGeometry relative="1" as="geometry">
            <Array as="points">
              <mxPoint x="3896" y="8165" />
            </Array>
          </mxGeometry>
        </mxCell>
        <mxCell id="VsVcQcCOclfDHJGfPfXY-446" value="uses" style="curved=1;startArrow=none;endArrow=none;exitX=1;exitY=0.85;entryX=0;entryY=0.1;rounded=0;" edge="1" parent="VsVcQcCOclfDHJGfPfXY-202" source="VsVcQcCOclfDHJGfPfXY-293" target="VsVcQcCOclfDHJGfPfXY-365">
          <mxGeometry relative="1" as="geometry">
            <Array as="points">
              <mxPoint x="4042" y="8165" />
            </Array>
          </mxGeometry>
        </mxCell>
        <mxCell id="VsVcQcCOclfDHJGfPfXY-447" value="uses" style="curved=1;startArrow=none;endArrow=none;exitX=0.6;exitY=1;entryX=0.33;entryY=0;rounded=0;" edge="1" parent="VsVcQcCOclfDHJGfPfXY-202" source="VsVcQcCOclfDHJGfPfXY-311" target="VsVcQcCOclfDHJGfPfXY-365">
          <mxGeometry relative="1" as="geometry">
            <Array as="points">
              <mxPoint x="4432" y="8165" />
            </Array>
          </mxGeometry>
        </mxCell>
        <mxCell id="VsVcQcCOclfDHJGfPfXY-448" value="uses" style="curved=1;startArrow=none;endArrow=none;exitX=1;exitY=0.61;entryX=0.96;entryY=0;rounded=0;" edge="1" parent="VsVcQcCOclfDHJGfPfXY-202" source="VsVcQcCOclfDHJGfPfXY-268" target="VsVcQcCOclfDHJGfPfXY-365">
          <mxGeometry relative="1" as="geometry">
            <Array as="points">
              <mxPoint x="4980" y="6746" />
              <mxPoint x="4980" y="8165" />
            </Array>
          </mxGeometry>
        </mxCell>
        <mxCell id="VsVcQcCOclfDHJGfPfXY-449" value="inherits" style="curved=1;startArrow=block;startSize=16;startFill=0;endArrow=none;exitX=0.69;exitY=0;entryX=1;entryY=0.74;rounded=0;" edge="1" parent="VsVcQcCOclfDHJGfPfXY-202" source="VsVcQcCOclfDHJGfPfXY-342" target="VsVcQcCOclfDHJGfPfXY-268">
          <mxGeometry relative="1" as="geometry">
            <Array as="points">
              <mxPoint x="2693" y="7011" />
              <mxPoint x="2693" y="6746" />
            </Array>
          </mxGeometry>
        </mxCell>
        <mxCell id="VsVcQcCOclfDHJGfPfXY-450" value="inherits" style="curved=1;startArrow=block;startSize=16;startFill=0;endArrow=none;exitX=0;exitY=0.82;entryX=0.23;entryY=0;rounded=0;" edge="1" parent="VsVcQcCOclfDHJGfPfXY-202" source="VsVcQcCOclfDHJGfPfXY-342" target="VsVcQcCOclfDHJGfPfXY-293">
          <mxGeometry relative="1" as="geometry">
            <Array as="points">
              <mxPoint x="1657" y="7300" />
            </Array>
          </mxGeometry>
        </mxCell>
        <mxCell id="VsVcQcCOclfDHJGfPfXY-451" value="inherits" style="curved=1;startArrow=block;startSize=16;startFill=0;endArrow=none;exitX=1;exitY=0.7;entryX=0.2;entryY=0;rounded=0;" edge="1" parent="VsVcQcCOclfDHJGfPfXY-202" source="VsVcQcCOclfDHJGfPfXY-342" target="VsVcQcCOclfDHJGfPfXY-311">
          <mxGeometry relative="1" as="geometry">
            <Array as="points">
              <mxPoint x="3849" y="7300" />
            </Array>
          </mxGeometry>
        </mxCell>
        <mxCell id="VsVcQcCOclfDHJGfPfXY-452" value="inherits" style="curved=1;startArrow=block;startSize=16;startFill=0;endArrow=none;exitX=0;exitY=0.79;entryX=0.28;entryY=0;rounded=0;" edge="1" parent="VsVcQcCOclfDHJGfPfXY-202" source="VsVcQcCOclfDHJGfPfXY-349" target="VsVcQcCOclfDHJGfPfXY-342">
          <mxGeometry relative="1" as="geometry">
            <Array as="points">
              <mxPoint x="2262" y="7011" />
            </Array>
          </mxGeometry>
        </mxCell>
        <mxCell id="VsVcQcCOclfDHJGfPfXY-453" value="inherits" style="curved=1;startArrow=block;startSize=16;startFill=0;endArrow=none;exitX=0.5;exitY=1;entryX=0.5;entryY=0;rounded=0;" edge="1" parent="VsVcQcCOclfDHJGfPfXY-202" source="VsVcQcCOclfDHJGfPfXY-355" target="VsVcQcCOclfDHJGfPfXY-342">
          <mxGeometry relative="1" as="geometry">
            <Array as="points" />
          </mxGeometry>
        </mxCell>
        <mxCell id="VsVcQcCOclfDHJGfPfXY-454" value="uses" style="curved=1;startArrow=block;startSize=16;startFill=0;endArrow=none;exitX=0;exitY=0.58;entryX=0.5;entryY=0;rounded=0;" edge="1" parent="VsVcQcCOclfDHJGfPfXY-202" source="VsVcQcCOclfDHJGfPfXY-359" target="VsVcQcCOclfDHJGfPfXY-268">
          <mxGeometry relative="1" as="geometry">
            <Array as="points">
              <mxPoint x="894" y="6025" />
            </Array>
          </mxGeometry>
        </mxCell>
        <mxCell id="VsVcQcCOclfDHJGfPfXY-455" value="uses" style="curved=1;startArrow=block;startSize=16;startFill=0;endArrow=none;exitX=0.57;exitY=1;entryX=0.4;entryY=0;rounded=0;" edge="1" parent="VsVcQcCOclfDHJGfPfXY-202" source="VsVcQcCOclfDHJGfPfXY-359" target="VsVcQcCOclfDHJGfPfXY-293">
          <mxGeometry relative="1" as="geometry">
            <Array as="points">
              <mxPoint x="2061" y="6025" />
              <mxPoint x="2061" y="7300" />
            </Array>
          </mxGeometry>
        </mxCell>
        <mxCell id="VsVcQcCOclfDHJGfPfXY-456" value="uses" style="curved=1;startArrow=block;startSize=16;startFill=0;endArrow=none;exitX=1;exitY=0.54;entryX=0.5;entryY=0;rounded=0;" edge="1" parent="VsVcQcCOclfDHJGfPfXY-202" source="VsVcQcCOclfDHJGfPfXY-359" target="VsVcQcCOclfDHJGfPfXY-311">
          <mxGeometry relative="1" as="geometry">
            <Array as="points">
              <mxPoint x="4285" y="6025" />
            </Array>
          </mxGeometry>
        </mxCell>
        <mxCell id="VsVcQcCOclfDHJGfPfXY-457" value="owns" style="curved=1;startArrow=none;endArrow=none;exitX=1;exitY=0.69;entryX=0.5;entryY=0;rounded=0;" edge="1" parent="VsVcQcCOclfDHJGfPfXY-202" source="VsVcQcCOclfDHJGfPfXY-268" target="VsVcQcCOclfDHJGfPfXY-349">
          <mxGeometry relative="1" as="geometry">
            <Array as="points">
              <mxPoint x="3112" y="6746" />
            </Array>
          </mxGeometry>
        </mxCell>
        <mxCell id="VsVcQcCOclfDHJGfPfXY-458" value="owns" style="curved=1;startArrow=none;endArrow=none;exitX=0.74;exitY=0;entryX=1;entryY=0.66;rounded=0;" edge="1" parent="VsVcQcCOclfDHJGfPfXY-202" source="VsVcQcCOclfDHJGfPfXY-311" target="VsVcQcCOclfDHJGfPfXY-349">
          <mxGeometry relative="1" as="geometry">
            <Array as="points">
              <mxPoint x="4624" y="7300" />
              <mxPoint x="4624" y="7011" />
            </Array>
          </mxGeometry>
        </mxCell>
        <mxCell id="VsVcQcCOclfDHJGfPfXY-459" value="owns" style="curved=1;startArrow=none;endArrow=none;exitX=0.83;exitY=0;entryX=0.5;entryY=1;rounded=0;" edge="1" parent="VsVcQcCOclfDHJGfPfXY-202" source="VsVcQcCOclfDHJGfPfXY-293" target="VsVcQcCOclfDHJGfPfXY-349">
          <mxGeometry relative="1" as="geometry">
            <Array as="points">
              <mxPoint x="3112" y="7300" />
            </Array>
          </mxGeometry>
        </mxCell>
      </root>
    </mxGraphModel>
  </diagram>
</mxfile>
